<svg xmlns="http://www.w3.org/2000/svg" xml:space="preserve" x="0" y="0" version="1.1" viewBox="0 0 5120 5120"><path d="M5130 1890v3240H11V12H5130V1890m-741 2131a1837 1837 0 01 100-101c26-32 55-62 80-95 40-58 37-233-4-290-28-41-54-84-89-120-63-65-74-130-11-200 2-3 4-6 15-8 78 0 159 17 236-26l10-3c2-2 5-5 10-7l10-3c6-5 10-11 23-18 128-74 175-223 124-388 25-31 46-65 74-93 52-50 58-105 13-165-27-37-53-74-79-118a260 260 0 01 14-43 335 335 0 00-146-361v-7c-33-9-66-18-106-25-4-1-8-2-15-10-15 0-30-5-45-2-106 19-168-22-165-118a580 580 0 01 37-52c2-2 4-5 11-10 18-30 37-58 62-88 13-16 34-30 39-48 17-62 33-125 40-188 6-46-5-93-57-122a458 458 0 00-162-177c-2-2-4-4-8-13-36-50-73-102-110-160-30-37-58-78-93-112-50-50-104-95-159-140-16-13-40-18-60-28l-2-6c-5-2-11-3-16-6l-1-6L3930 650v-8c-6-10-8-25-16-30-73-50-150-92-243-67-28 8-70-10-84 40-2 3-5 4-12 7-3 2-5 5-6 8h-7c-48 5-27 28-17 55-37 49-74 97-117 140-36-26-70-58-108-80-44-23-94-37-141-61-5-5-10-10-16-22 27-165-78-330-240-370-74-17-151-22-233-35-81-70-158-88-253 5-60 6-124 4-181 20-58 17-111 52-173 80a349 349 0 00-113 310c-38 16-71 27-100 44-58 34-112 72-174 105-32-48-64-95-97-150-24-22-44-54-72-67-116-50-242-13-327 90l-8 5-4 9h-8c-14 14-28 27-41 42h-7c-7 7-13 13-26 22a920 920 0 00-300 296c-16 23-18 54-34 82-10 5-23 7-30 15a8304 8304 0 00-158 178c-63 73-57 153-24 243 2 5 3 10 2 20a79727 79727 0 00 109 170l24 25v8c5 5 8 10 13 18 0 0 2 3 2 10a150 150 0 01 19 32 110 110 0 01-8 40l-13 24s0 4-6 8c-26 48-65 55-117 45a300 300 0 00-264 69c-116 100-132 223-90 368l-60 70c-70 71-72 164-6 237 21 24 44 48 65 80l-8 50c-14 82-15 161 37 234 85 120 204 150 343 133a160 160 0 01 80 20c60 60 56 121-1 182-3 2-3 5-10 10-2 3-3 6-3 10l-5 3c0 1-2 3-6 3l-2 2s1 3-3 8c-2 4-4 8-11 15l-25 37-6 3c-13 20-27 40-40 68l-31 160c0 4 0 9-2 15v3s3 2 2 10c7 23 9 50 23 69 50 66 106 130 161 198l3 2s3-1 6 1c0 0 3 2 0 9a150 150 0 01 37 32c37 52 67 110 110 156 66 67 140 125 210 194 14 12 26 23 40 40l32 27 10 13c22 15 44 30 68 50l37 12c4 4 8 7 14 18 59 50 233 44 287-16 40-43 71-95 103-145 14-23 26-42 60-28 35 29 67 72 107 82 107 27 119 93 116 188a145 145 0 00 86 142v7l36 25c46 23 89 55 137 67 70 17 143 20 221 32 14 10 28 18 40 28 66 50 104 48 167-4 15-12 34-20 60-28 26-2 52-5 79-6 103-7 200-31 287-102l20-30 6-3 7-16 6-1 14-30h6c35-48 60-98 35-165 0-5 0-10 5-20 12-17 23-35 42-54l110-60c28-20 55-40 90-60 20 14 42 26 57 44 25 30 46 63 74 97 104 93 215 102 330 23 50-34 96-75 150-115 86-80 175-160 258-244 35-36 77-75 80-137 5-5 10-10 22-17" fill="#D3523B" opacity="1"/><path d="m728 1876 2-44a120 120 0 00-20-32l-1-8c-4-10-8-15-12-20v-4c-8-15-18-27-27-43-35-54-70-105-104-155-2-5-3-10-2-19 6-10 10-16 17-18 24 27 42 56 70 73 47 30 100 53 150 78 84 43 168 85 254 131l85 58 12 3a8971 8971 0 00 342 166c46 20 97 33 146 52 18 8 41 22 51 16 29-19 53-44 76-70 5-4-4-20-7-34-3-14-7-25-8-36 2 0 7 0 10 2 81 22 130 108 235 92-39 30-84 38-76 87h-3c-47 10-65 36-56 84A597 597 0 00 1770 2730c2 8 1 17 1 29l12 29-1 2c7 42 2 92 25 117a290 290 0 01 64 127c27 8 63 10 60 33L1787 3180H1770c-30-42-57-80-90-130-170 82-335 162-504 240-34 14-64 27-97 39-91 45-180 93-273 140a7590 7590 0 01-206 89l17-70h4a220 220 0 00 27-40c1-5 3-9 8-16l5-6c0-1 2-3 6-2 22 6 22 6 60-36 31-34 32-105 5-142-10-13-20-40-15-45a98 98 0 01 53-25c44-7 88-8 132-15 90-13 182-25 273-42 40-7 77-25 118-41 10-40 22-77 26-115 4-43 15-70 65-64 36 4 73 3 110 0 12-1 23-15 34-26 0-13 0-23 4-36 5-39 9-75 7-110 0-34 15-49 45-56l39-12c7-2 11-2 18 0 18-6 45-13 50-27 6-17-6-41-12-64-8-10-14-18-20-29-28-43-58-25-92-9-10-22-23-44-26-66-7-44-10-90-15-137l-5-51c-82 0-160 0-240-4-3-47-7-90-12-136-89-20-176-37-267-52a92 92 0 01-32-9c-7-3-14-4-23-5-8-2-13-3-20-9a600 600 0 00-80-21c-8 0-13 0-19-3-32-18-63-36-95-45-30-10-37-24-29-50 3-12 3-24 4-35 0 0 0-4 5-6 8-10 11-18 15-25" fill="#071624" opacity="1"/><path d="M3434 800c38-48 75-96 118-148 76-34 147-44 220-7 8 4 19 3 28 5v3l50 36 1 3c10 10 21 18 31 25v3c4 4 8 5 10 8 1 1 1-1 1 2 6 5 12 8 20 11 4 3 6 5 7 13V810h-2c-7 4-10 8-14 13h-4c-3 3-4 6-6 10h-4a20 20 0 00-5 10s-2 2-5 0a144 144 0 00-30 36h-4a226 226 0 00-34 37c-5 6-8 10-15 13-7 5-10 10-15 12-2-1 1 1-2 2-5 6-7 12-10 17h-1l-8 10h-3a225 225 0 00-31 41l1 7-2-1-15 5c-5 4-7 8-10 13 0 1-2 3-6 4-7 7-10 14-16 23-2 5-5 6-11 8-14 14-24 29-36 46L3590 1190c0 2-2 5-5 6-29 24-54 48-82 72-6 7-10 14-14 22-2 3-4 7-7 8l-68 100-38 50-10 12c-13 3-24 6-36 5-66-46-128-90-190-138L3434 800" fill="#F3603A" opacity="1"/><path d="m1600 649 100 146 9 20a430 430 0 00 22 48c57 106 114 213 167 320-24 10-45 20-64 31-58 36-116 73-176 107-34-42-66-80-99-123-16-22-32-40-49-60l-2-9c-4-4-6-6-10-7v-4c-15-19-30-34-47-50-1-2-3-6-3-10a76 76 0 00-22-17c-2 0-5-2-6-5-7-8-13-12-21-18-5-3-7-6-9-12a231 231 0 00-40-40c-16-21-33-38-52-57-43-45-83-87-120-133L1294 670c78-68 165-88 263-48l1 2 13 8L1600 650" fill="#6DBFD2" opacity="1"/><path d="M705 1910c2 8 2 20 0 31-9 27-3 42 28 50 32 10 63 28 95 50-2 114-5 221-10 330h-10c-101-7-199-14-300-23-41-2-80-8-116-2-53 9-104 26-155 40-47-138-31-261 85-361a300 300 0 01 264-69c52 10 90 3 120-47zm-23 1300c-26-5-53-16-79-13-139 17-258-13-343-133-52-73-50-152-37-235 3-16 6-33 12-54 64 15 122 38 182 50 32 7 72 22 104-15 54 3 105 4 156 4 44 0 88-3 134-3 3 3 4 4 4 10 6 112 12 220 14 327-97 4-97 4-147 61" fill="#2F1919" opacity="1"/><path d="M2438 4917c-72-9-145-10-215-28-48-12-91-44-141-71l-31-29-1-3a321 321 0 01-68-294l-60-20c25-30 47-59 68-88 10-14 20-30 30-40 23 35 35 2 46-8 40-36 77-76 119-115 22-3 44-11 60-5 39 15 75 37 113 59l43 16c-8 16-20 30-27 45-14 28-25 57-40 85-35-15-67-30-93 6-27 35-23 74 2 105 17 20 45 32 67 52l10 44 10 56 2 29c2 7 5 12 9 20l11 50 17 22c10 18 20 32 30 48l11 20 28 44" fill="#2C1715" opacity="1"/><path d="M2697 230c76 10 153 15 227 33a329 329 0 01 239 376c-3 8-4 10-8 11-10 24-17 47-25 70h-3l-130 160-61 50c-52-13-99-27-147-43-20-16-40-28-70-46l65-20c-30-47-75-50-114-65 43-23 83-47 131-12 42 32 70 10 92-21 45-62 20-124-63-159-8-120-34-229-123-313-5-5-6-14-10-21" fill="#2D1815" opacity="1"/><path d="M3070 4809c-80 70-177 95-280 102-27 1-53 4-84 3 65-87 107-180 108-292 8-22 13-41 21-60 67-22 85-49 74-105-10-48-30-60-90-55-40-18-37-47-29-73a432 432 0 01-37-42c10-2 18-6 28-6 28-10 54-20 78-35 38-22 73-42 108 4 4 5 18 4 27 5v5c18 20 37 35 56 50v3c9 12 16 20 26 28 2 0 4 5 0 6-11 49 34 56 55 82v4l17 30 23 86v22l-42 158-2 2c-8 10-13 20-18 28l-2 2-10 17-3 1c-10 10-17 20-24 30" fill="#2A1716" opacity="1"/><path d="M1175 779c40 43 80 85 123 133 16 23 30 41 40 61a30 30 0 01-13 8c-24 13-47 22-64 39-62 60-122 123-186 187l-102 45a1050 1050 0 01-58-52c-39-37-71-85-135-80 9-28 11-60 27-82a894 894 0 01 306-297 60 60 0 01 28 12l34 26" fill="#73493B" opacity="1"/><path d="M517 2809c-28 38-68 23-100 17-60-13-118-36-181-55a980 980 0 01-70-71c-66-73-63-166 5-237 22-22 41-47 64-74 53-17 104-34 157-43 36-6 75 0 116 6 3 20 3 33 2 52l1 298c0 23 6 45 9 72l-3 35" fill="#7F4734" opacity="1"/><path d="M4361 4040c3 60-39 99-74 135a4099 4099 0 01-263 242 744 744 0 01-64-40v-10l-24-40c-32-42-64-84-94-130l92-98 40-44c0-1-1-2 2-2 4-3 6-7 6-10h4c4-3 6-7 8-10 0 2 2 1 5 0 16-11 28-23 44-35l18-18h3c37-25 71-48 108-70 20 18 35 35 54 50 40 30 74 75 134 73l1 7" fill="#67473D" opacity="1"/><path d="m4900 2393 80 110c45 60 40 115-13 166-28 28-50 62-80 96-17 11-30 20-45 27-66 10-130 18-192 24-2-27-6-50-6-74l-7-355c0 1-2 0 1 0 3-10 2-18-1-28-2-2-3-6 1-8 25-4 47-11 67-8 48 6 96 17 147 30 17 9 32 14 48 20" fill="#FDCB83" opacity="1"/><path d="M1090 4400c-70-62-144-120-210-187-43-45-73-104-107-160 64-50 125-96 190-140 30 16 59 32 88 50l100 80c48 52 95 100 142 152-9 17-16 31-25 44l-76 101c-1 0-2 3-4 2l-8 4c2 0 3 1 3 5-3 5-4 7-8 10a503 503 0 01-65 41l-20-2" fill="#E47A4A" opacity="1"/><path d="M2810 4623a440 440 0 01-108 290c-17 13-36 20-50 32-64 52-102 54-167 4l-44-30a250 250 0 01-30-48 62 62 0 00-13-20c-10-14-20-28-29-50-6-10-11-16-17-20l-10-50a50 50 0 00-10-21v-30l20-64c11-4 20-5 30-5 3 0 5-3 10-7 7-3 12-4 20-2 95 4 187 6 278 7l65-2 55 15" fill="#72351D" opacity="1"/><path d="m4471 3207-6 7c-63 71-52 136 11 201 35 36 60 79 90 120 40 57 43 232 2 290-24 33-53 63-83 95-4 1-5 0-5-4 17-26 36-46 48-70 10-24 14-52 21-82 30-60 23-114 0-173-3-20-3-38-10-50-34-49-70-96-104-143-37-49-62-94-14-154 29-38 10-56-39-66-71-15-141-38-212-60l-10-21a312 312 0 00-32-32c-4-30-5-56-12-80-25-85-55-167-78-252-8-25 0-55 5-83 6 0 10 0 15 3 10 20 17 35 24 57-2 10-3 13-7 15-9 4-20 10-20 13l27 55c20 65 40 127 63 187 19 48 42 93 66 142 32 8 61 13 94 20l158 30c17 6 32 9 50 12l-42 23" fill="#281416" opacity="1"/><path d="M2694 228c7 9 8 18 13 23 89 84 115 193 122 314 0 4 0 6-4 5l-94 28c6-10 10-20 17-20 48-11 58-44 52-87a412 412 0 00-137-248l-56 26-8-10 32-50c-21-3-38-7-54-6-60 3-101 30-143 80a470 470 0 00-102 240c-1 12 12 33 24 39 76 36 151 73 242 50 42-10 88-8 130-8-93 40-186 55-281 19a1520 1520 0 01-138-60 444 444 0 01 137-330c87-94 164-76 248-5" fill="#E69B25" opacity="1"/><path d="M776 1120c68-5 100 43 140 80l55 54a40 40 0 01-16 16 96 96 0 01-37-10c-32-35-64-66-96-97-4 5-8 10-16 15-47 40-92 80-134 120-65 64-104 138-93 232l-15 18c-36-82-42-162 20-235 52-60 105-120 159-178 7-8 20-10 33-15" fill="#23273B" opacity="1"/><path d="M1708 810c-2-3-4-7-5-14 56-38 110-76 167-110 30-17 63-28 101-45a346 346 0 01 116-310c4 0 4 0 4 4-5 15-7 29-13 40-24 40-56 77-73 120-47 116 5 215 70 308 13 18 32 33 50 45 38 23 53 82 112 70 38-9 75-19 113-25 0 5 0 9-4 14-70 42-136 66-200-9-5-5-10-7-15-10v-2a20 20 0 00-10-7v-4l-52-53c-23-33-46-63-70-95-5 9-7 10-7 12 20 40 40 79 57 119-15-10-30-20-38-32-16-29-28-60-43-90-27-56-34-58-90-30-26 14-50 30-73 44l-97 60" fill="#2C140B" opacity="1"/><path d="M3960 4378c20 12 39 25 60 40-45 40-90 82-140 116-116 80-227 70-334-28-5-12-5-20-3-26 97 71 192 79 287 6 45-34 87-72 130-108" fill="#231A22" opacity="1"/><path d="M3920 750c-1-4-3-6-9-12l-18-11v-1c-4-7-7-8-10-9l-1-3c-10-10-20-18-30-25 0 0-2 0-3-3a566 566 0 00-48-37l-2-2c-64-50-133-50-204-35-7 1-17-8-25-12h2c5-4 6-7 8-10 3 0 6-2 13-7 130-52 240-16 338 66l1 3 27 19 2 2 18 10v2c15 20 30 36 46 53l-27 35c-18 0-33-1-50-4l-28-20" fill="#33181C" opacity="1"/><path d="M4846 2792c12-8 24-16 40-24 58 160 11 308-123 383a74 74 0 00-23 18s-3 2-8 2c-7 3-10 5-12 8 0 0-4 2-10 1a87 87 0 01-28-30h10c11-5 20-9 28-16 114-90 144-207 126-342" fill="#3A180F" opacity="1"/><path d="M2442 233a470 470 0 00-136 332c-4 8-6 11-11 14l-37 20c-6 0-8 3-13 7-30 53-19 125 22 148 34 20 57-6 83-27 6 1 8 2 10 5-3 8-7 13-13 20-64 32-100 26-126-20-30-52-15-124 24-157a180 180 0 00 44-72c28-72 53-145 80-217 2-7 8-20 5-21a40 40 0 00-24-10l-208 60-51 16c55-27 108-62 166-79 57-16 120-14 185-20" fill="#2C140B" opacity="1"/><path d="M3432 798a36180 36180 0 01-295 531c-8 7-12 10-17 8 16-40 30-76 50-110 72-126 147-252 220-378 15-26 17-50-13-68-44-27-88-54-130-83-27-18-50-18-76-2l10-37c46 19 96 33 140 57 39 21 72 53 110 82" fill="#301217" opacity="1"/><path d="M683 3213c49-60 49-60 150-64H880l40-10h3l30-10 336-50 2 1c-39 14-77 32-116 40-90 16-182 28-273 41-44 7-88 8-132 15a100 100 0 00-53 25c-5 6 6 32 15 45 27 37 26 108-5 142C690 3430 690 3430 670 3423c0-3-1-4 1-5 4-4 5-8 6-10 2-4 2-7 5-10 57-60 62-120 1-185" fill="#151118" opacity="1"/><path d="M540 3732c0-5 0-10 4-18 15 11 25 27 36 40 15 18 30 34 46 50l-2 6c53 58 108 112 163 166 0 2 8-3 16-4l20-1c6 7 11 17 10 18-29 21-55 52-97 30l-5-5a20 20 0 00-8-5c-54-64-110-128-160-194-14-18-16-46-23-75v-8" fill="#382631" opacity="1"/><path d="M1177 776a86 86 0 01-36-27l-2-30h4c17-14 30-28 45-42h3l7-10s3-4 8-5c18-8 35-10 45-20 57-55 130-68 203-64 35 2 70 29 104 44-98-40-185-20-263 48-40 34-77 69-118 106" fill="#172A3C" opacity="1"/><path d="M4780 1992a320 320 0 01 130 356c-14-10-30-24-29-38 4-70-7-136-42-195-24-40-43-93-107-92 0 0-2-2-2-5 0-18 0-32 3-46l35 10 2 2c3 4 6 6 10 8" fill="#351618" opacity="1"/><path d="M4730 1971c0 15 0 29-4 46-53-9-104-34-151-28-93 10-183 37-279 58-17 3-30 5-42 4 50-22 98-45 148-60 52-15 53-12 30-64-10-18-14-38-18-56 11 14 22 26 27 40 20 48 53 55 100 45 35-8 73-6 110-9l20 3 60 21" fill="#401D0A" opacity="1"/><path d="M626 3804c-15-16-31-32-46-50-11-13-20-29-35-44 6-50 15-101 28-156 10 0 18 4 26 8 68-30 135-61 208-91 4 0 6 3 4 5-54 29-107 52-158 80-66 37-90 101-65 174 9 26 25 50 38 74" fill="#432A16" opacity="1"/><path d="M4734 2024c62-2 80 50 105 90 35 60 46 127 42 196 0 14 15 28 26 41 0 11-3 23-7 38a91 91 0 01-48-21c15-140 0-260-118-344" fill="#401D0A" opacity="1"/><path d="M1738 4372c-30-8-43 11-57 34-32 50-63 102-103 145-54 60-228 66-284 13 106 41 235 20 293-50l14-28c34-54 66-105 100-155 2 0 6 2 7 4a130 130 0 00 21 16v3l10 16v2" fill="#B4584E" opacity="1"/><path d="M1558 622c-35-15-69-42-104-44-73-4-146 10-203 64-10 10-27 12-44 18a267 267 0 01 320-86c30 13 50 45 73 71-8 0-17-6-30-15-6-6-9-7-12-9v1" fill="#3F1B22" opacity="1"/><path d="m1919 4472 63 20c-30 100-4 200 68 294-63-22-88-85-86-138 3-95-9-161-116-188-40-10-72-53-109-85 0-3 0-4 3-4l26 10 2 4a1165 1165 0 00 100 65l2 3c17 8 32 13 47 18" fill="#B4584E" opacity="1"/><path d="m4000 770 25-32-47-52c20 6 44 10 60 25 55 44 110 90 160 139 34 34 61 75 92 116 0 4-1 5-4 3a8818 8818 0 01-168-160A126 126 0 00 4000 770" fill="#C05D4B" opacity="1"/><path d="M735 4022c43 20 70-12 98-33l-8-21c34-30 70-54 108-78l18 12 8 10-187 137c-15-7-26-16-37-27" fill="#61453E" opacity="1"/><path d="M4680 3152c8 10 16 19 28 29-70 43-150 25-232 26 8-7 20-14 36-23a180 180 0 01-45-12c73-10 143-15 213-20" fill="#491D0A" opacity="1"/><path d="M4570 1320c52 21 63 68 58 114-8 63-24 126-41 188-5 18-26 32-43 48-5 0-6-2-5-5 50-60 56-132 61-201 3-35-10-72-17-110l-11-19-3-14 2-2zm-640-675c-98-78-206-114-335-64 6-47 50-28 77-36 93-25 170 18 243 67 8 5 10 20 15 33" fill="#C05D4B" opacity="1"/><path d="M1584 4515c-55 70-184 90-290 45-9-4-13-7-21-14s-10-11-10-16c16 2 29 1 38 7 100 56 190 28 280-26l3 4" fill="#3D1D1C" opacity="1"/><path d="M3567 600c11 4 20 13 28 12 71-14 140-14 204 34-8 2-19 3-27-1-73-37-144-27-218 4-18-20-39-44 13-49" fill="#C05D4B" opacity="1"/><path d="m3540 4480 3 25c-22-28-43-61-68-90-15-19-38-30-62-46-5-1-7-3-5-6 12-10 22-17 36-23 34 47 65 93 96 140" fill="#9D6151" opacity="1"/><path d="M4650 1944c-36 6-74 4-110 12-46 10-80 3-99-45-5-14-16-26-27-43-5-10-5-14-5-21l20-27 2 1c4 95 66 136 172 117 14-3 30 1 46 6zm-240-805c68 45 125 100 160 177 0 3 0 4-4 3-10-4-16-8-22-12l-1-3a445 445 0 00-41-46v-2l-10-7 1-3c0-2-1-7-3-10l-81-95 2-2" fill="#C05D4B" opacity="1"/><path d="m3180 656-10 44c-15 36-28 66-44 98-5 8-6 15-8 20h-4c-7-6-14-13-13-17 9-27 20-54 30-80l2-3c10-24 18-46 25-68l5-7a30 30 0 01 17 13" fill="#A57A55" opacity="1"/><path d="M3174 4547c-10-25-17-52-26-87l-17-30v-4c-5-15-10-27-13-43 2-12 3-19 7-23 16 36 28 70 44 103 6 11 25 16 40 25l2 3-37 56" fill="#9D6151" opacity="1"/><path d="M4290 970c37 50 74 101 110 157 0 4-2 5-5 4-24-29-44-55-65-86l-41-74 1-1" fill="#C05D4B" opacity="1"/><path d="M564 1573c36 47 70 98 106 155v12a30 30 0 01-10-15c-4-5-6-7-9-8-30-47-58-93-87-144" fill="#23273B" opacity="1"/><path d="M3133 4729c10-50 23-100 38-154 24 56 0 106-38 154" fill="#9D6151" opacity="1"/><path d="M4482 3922a1070 1070 0 01-76 80c-4 0-6-2-6-6a1400 1400 0 01 80-76l2 2" fill="#281416" opacity="1"/><path d="M3322 4432c-35 20-70 39-108 58-3 0-5-1-3-5 37-20 73-38 110-55v2zm87-63a963 963 0 01-84 62c-3 1-4 0-3-4 29-22 56-42 84-61l3 3" fill="#9D6151" opacity="1"/><path d="M4540 1670c-17 30-36 58-58 87-5 0-8-2-7-5l6-20 4-2 53-62 2 2" fill="#C05D4B" opacity="1"/><path d="M600 3558c-9 0-16-4-26-7 10-20 24-40 40-62-3 20-8 43-14 69" fill="#382631" opacity="1"/><path d="m4733 1972-60-22c30 7 63 16 95 28-10 0-20-2-35-6" fill="#C05D4B" opacity="1"/><path d="M1239 4531c-23-15-45-30-67-49 0-5 3-8 5-6l31 17c5 4 8 6 12 7v3c8 5 14 6 19 8v4c0 6 2 9 3 13l-3 3" fill="#B4584E" opacity="1"/><path d="M4470 1770c-10 17-21 34-35 50-4 1-5 0-5-3l2-15 3-2c8-10 13-20 20-30 5-2 8-4 11-4l4 4" fill="#C05D4B" opacity="1"/><path d="M1185 678a241 241 0 01-43 40c10-13 25-26 43-40" fill="#3F1B22" opacity="1"/><path d="M645 3448c-5 13-12 26-24 40 5-14 13-26 24-40" fill="#382631" opacity="1"/><path d="M1090 4404c5-3 10-3 20 1 10 14 16 23 21 34l-2 2a327 327 0 01-38-37" fill="#B4584E" opacity="1"/><path d="M670 1743v-12c10 10 19 22 27 38a100 100 0 01-26-26" fill="#2F1919" opacity="1"/><path d="M1260 4530c2 5 5 10 10 16-10-2-20-5-30-12-1-3 0-5 4-5l16 1zm-100-60c-10-7-20-15-30-26-1-3 0-4 4-4 13 9 22 17 30 27l-4 3" fill="#B4584E" opacity="1"/><path d="M3073 4809c4-10 11-20 21-30-4 10-10 20-20 30" fill="#9D6151" opacity="1"/><path d="M2050 4793c10 4 19 13 29 23a94 94 0 01-29-23" fill="#B4584E" opacity="1"/><path d="M1136 720c3 7 3 14 3 26-6 0-13-2-23-6a70 70 0 01 20-20" fill="#3F1B22" opacity="1"/><path d="M3960 668c-10-2-18-8-27-16 7 2 17 7 26 16" fill="#C05D4B" opacity="1"/><path d="M3113 4759c1-9 6-18 13-28-1 8-5 18-13 28" fill="#9D6151" opacity="1"/><path d="M710 1803c7 5 14 13 20 25a74 74 0 01-20-25zm15 74c0 6-4 14-10 23 0-7 3-14 10-23" fill="#2F1919" opacity="1"/><path d="M4403 4003c-4 7-10 12-18 18-4 0-5-1-5-5 7-7 13-12 20-16l3 3" fill="#281416" opacity="1"/><path d="M4743 3168c2-5 8-10 16-17-2 6-7 12-16 17" fill="#491D0A" opacity="1"/><path d="M4364 4040c-3 0-4-4-2-10 7-6 12-8 18-10l2 2c-5 6-10 11-18 17" fill="#281416" opacity="1"/><path d="M3100 4777c0-4 2-10 7-16 0 4-2 10-7 16" fill="#9D6151" opacity="1"/><path d="M697 1776c4 1 8 6 12 14-5-2-8-6-12-14" fill="#2F1919" opacity="1"/><path d="M3978 680c-5 0-10-2-17-7 4 0 10 1 17 6zm422 450c4 0 6 3 10 7 0 2 0 4-4 3-5-2-7-5-8-8l2-2zm-822-539c0 2-1 5-6 8 0-2 0-5 6-8" fill="#C05D4B" opacity="1"/><path d="M1196 668c0 2 0 5-5 10-1-3 0-6 5-10" fill="#3F1B22" opacity="1"/><path d="M1171 4479c-4 0-7-2-10-7-1-2 1-4 4-4 6 2 8 4 10 6l-4 5" fill="#B4584E" opacity="1"/><path d="M4723 3178c0-2 2-4 8-6 0 1-3 4-8 6" fill="#491D0A" opacity="1"/><path d="M675 3409c0 1 0 5-4 9-2-3 0-6 4-10zm-16 16c2 0 0 4 0 5-2 0-3-3-3-3l3-2" fill="#382631" opacity="1"/><path d="M540 3732v4c0 2-2 0-2 0l1-4" fill="#432A16" opacity="1"/><path d="M652 1720c2-2 4 0 7 3-2 0-4 0-7-3" fill="#2F1919" opacity="1"/><path d="M4479 1760c0 3-2 6-7 10-2 0-4-3-4-6 2-5 4-7 6-9l5 4zm300 230c-3 0-6-2-10-6 3-1 6 0 10 5" fill="#C05D4B" opacity="1"/><path d="M724 4010c1 0 3 0 5 3l-2 2s-3-2-3-4" fill="#61453E" opacity="1"/><path d="M1771 2756c0-8 1-17-1-25a590 590 0 01 95-498l57-82 2-1c21-15 39-30 57-40 45-28 105-45 131-84 37-55 68-112 122-156l20-10c18-9 33-18 48-28h3c2 0 5-3 8-3l32-14c12-4 20-8 27-13l3 1c2 0 5-3 8-2l31-10 60-12c7 0 11-2 20-3 61 2 119 2 180 5 154 40 288 102 352 258a537 537 0 01 236 270v5l-6 1c-138 3-272 5-410 6h-859c-5 2-7 6-10 11v206l5 505v9l-3 3c-11-8-25-14-33-24l-164-244v-2l-10-30m783-515H2750c0-20-2-34-3-55h-161l18-207h-45v-90c-20 24-70 45-23 66l14 233h-162l4 52h164" fill="#F9F9F5" opacity="1"/><path d="M918 1264c11 2 22 4 37 10 26 74 30 77 100 67 73 56 143 112 213 172a980 980 0 01-51 98c-11 10-20 19-26 28l-138 173L800 1684c-50-25-103-48-150-78-28-17-46-46-70-73a265 265 0 01 90-234c43-42 88-80 137-118l110 83" fill="#6CC0D4" opacity="1"/><path d="M1530 2840c-2 10-2 20-6 35a2000 2000 0 01-235 10c0-75 0-147 4-219 28-52 20-108-14-139l3-251h240c0 19 2 33 3 55l5 243c0 20 0 36-2 56l1 210" fill="#FAF5E7" opacity="1"/><path d="M1180 3290c165-78 330-158 500-240l90 133a85 85 0 01-19 33 2780 2780 0 01-87 104 9201 9201 0 00-214 187c-19 17-33 38-53 56-11-2-19-3-27-7-60-83-119-162-180-243l-10-22" fill="#1B3F57" opacity="1"/><path d="M1750 1970c3 10 7 22 10 40-40 31-80 56-121 80-48-15-99-27-144-48a5295 5295 0 01-332-166c67-91 133-176 202-262 5-4 9-7 14-6a970 970 0 00 53 54c39 36 92 66 115 110 29 57 80 62 123 92l-2 65 34-11-6 12 54 40" fill="#163F5B" opacity="1"/><path d="m1667 3320 84-104a180 180 0 00 22-30c4-5 7-5 18-5 17-4 27-6 37-11 57-30 112-69 184-58 4 3 6 4 7 8-17 30-33 58-53 87l-131 92c20 22 30 40 46 50 13 10 32 8 52 10 18-20 33-40 50-60 17 6 30 14 46 24-48 57-97 110-150 161L1667 3320" fill="#F8F7F1" opacity="1"/><path d="M1282 2272c0 86-1 168-7 256-48 3-90 2-134-3-26-25-49-48-74-69-22-17-46-30-72-48-18-10-33-23-50-26-42-7-84-10-126-13l10-325c5-4 10-4 20-1l80 22 20 8 21 5 34 8c93 20 180 36 266 53l12 133M1080 2425c33 28 63 63 100 81 45 22 69 2 70-46 1-85 0-170 0-256 0-29-10-40-40-45-70-11-140-26-210-41-46-10-92-26-148-40v267c75 6 166-5 228 80" fill="#B64D42" opacity="1"/><path d="m1363 1615-201 258c-4 2-5 2-12 0l-10-2c-28-18-56-35-85-56 44-60 90-118 136-176 7-10 15-17 30-28l71-20 6 43 64-19" fill="#8CDEF0" opacity="1"/><path d="M2232 1870c-52 44-83 101-120 156-26 40-86 56-130 83-20 12-37 26-58 41-10-48 34-57 73-86-104 16-154-70-234-95a30 30 0 01 10-20c15 3 29 5 40 10 45 22 89 46 134 66 21 10 44 10 47-25 13 5 22 14 33 20 15 6 40 19 45 13 12-10 24-35 20-50-21-78-50-153-109-218-26-30-50-57-72-85 31 8 60 17 74 22 25 40 37 86 66 102 37 20 37 44 40 75 0 17 8 33 13 49l56-23c24-10 48-23 72-34" fill="#0E171D" opacity="1"/><path d="M2010 3110c-70-9-125 30-182 60-10 5-20 7-34 10 38-35 81-68 137-112 3-23-33-25-60-33a290 290 0 00-64-127c-23-25-18-75-25-117 55 78 109 159 164 240 8 10 22 16 33 24l2-3c0-2 0-4 3-10 5-8 8-10 10-12l4 1 12 80" fill="#0D151D" opacity="1"/><path d="M1176 3290a50 50 0 01 13 26c-13 12-25 18-50 32l44 24c-3 36-13 64-4 80 30 56 67 107 100 162a30 30 0 01-17 7 8437 8437 0 01-183-281l3-10 94-40" fill="#CFE6E1" opacity="1"/><path d="M1530 2626c0-16 0-32 3-52 15-12 27-20 43-30h83c6 6 12 14 20 27 13 45-7 70-40 85l-20 2c-34-10-62-21-90-32" fill="#DDD6CA" opacity="1"/><path d="m1290 2889 235-10c-8 5-20 19-31 20-37 3-74 4-110 0-50-5-60 21-65 64-4 38-15 75-26 115-2 2-3 2-3-3v-186" fill="#151118" opacity="1"/><path d="M1080 3329c1 4 0 6-4 12-90 47-176 90-263 133l-2-3a7020 7020 0 01 268-142" fill="#432A16" opacity="1"/><path d="M1528 2630c30 7 57 17 88 29-8 5-20 9-32 12-30 7-46 22-45 55 2 36-2 72-7 111-4-66-5-134-4-207" fill="#151118" opacity="1"/><path d="m1770 1950-10 17c-1 2-6 3-8 3-20-13-38-27-56-40l6-12-34 11 2-65c0-4 1-5 3-5 1 0 3-2 7 0 32 31 61 62 90 92" fill="#283A4C" opacity="1"/><path d="M1270 2136c-86-14-173-30-262-50 85 13 172 30 261 50" fill="#2F1919" opacity="1"/><path d="m1640 2094 120-81c3 7 12 23 7 28-23 25-47 50-76 69-10 6-33-8-51-16" fill="#283A4C" opacity="1"/><path d="M1572 2546c-12 8-24 16-39 24-5-77-6-154-6-235 5 40 7 85 14 129 3 22 15 44 26 70l5 12" fill="#070D12" opacity="1"/><path d="M1640 2660c32-20 52-44 41-87 4 18 16 42 10 60-5 13-32 20-50 27" fill="#151118" opacity="1"/><path d="M1918 2150a642 642 0 01-52 80c-13-43 5-70 52-80" fill="#0E171D" opacity="1"/><path d="M1576 2544c-4 0-5-3-6-10 30-20 61-38 89 5-27 4-53 4-83 5" fill="#151118" opacity="1"/><path d="M928 2061c-24-3-49-10-76-18 23 3 49 9 76 18zm42 14c-5 2-11 1-19-2 5-2 12-1 19 2" fill="#2F1919" opacity="1"/><path d="M1771 2760a70 70 0 01 12 25 70 70 0 01-12-25" fill="#0D151D" opacity="1"/><path d="M1140 1873c2-2 4-1 8 0-1 2-4 2-8 0" fill="#163F5B" opacity="1"/><path d="M4286 970c17 25 30 48 44 80-3 31-7 56-14 80-68 26-110 77-150 132-4-2-6-4-8-10-8-6-14-8-20-10v-3c-7-5-13-7-18-9v-3c-17-12-33-20-50-31-11-10-22-17-33-24v-3c-6-7-14-11-20-15v-3c-4-5-7-6-10-8v-2c-10-10-20-15-30-20-6-3-7-6-8-13 3-42-20-48-50-47v-3c0-33-16-40-40-37v-2a40 40 0 00-14-10 66 66 0 01-16-20c-5-26-14-33-32-9l-20 1-10 9c-13 0-20 0-28-4l3-14 2-2c4-3 6-6 7-9l2-1c6-7 8-12 10-17 0 0-3-2 1-1 9-4 12-8 16-12l15-14L3850 880l3-1 30-33 4-3c5-3 6-5 6-8l3-2c5-3 7-5 7-9h3l15-13 3-2c10-13 18-26 26-39 15 2 30 3 48 3 48-11 86 3 120 36 54 53 110 106 168 160" fill="#42211D" opacity="1"/><path d="m3485 1298 6-8 15-22c25-23 50-47 80-68 92 92 177 182 264 275l20 40c66 105 134 205 200 308-5 7-8 12-16 17l-60 36c-11 2-19 4-27 2-66-92-132-180-200-270-9-10-17-15-27-23-95-80-197-150-253-267l-2-20" fill="#FCF8F3" opacity="1"/><path d="m3850 1472-260-273a2097 2097 0 00 70-105c2-3 4-4 10-5a950 950 0 00 59-71s0 1 2 0l9-9h2l8-10h2l7-10h30c8-3 10-6 10-9 5 0 10 0 18 3 3 4 3 6 3 10-2 5-4 7-10 10-5 3-6 7-8 10 0-2 1-1-2 0l-10 18s2 0-1 1c-5 7-6 13-8 19h-3c-8 10-13 20-19 34-21 47 26 39 41 59l49 52c37 33 74 63 115 94l51 10h18c4 1 5 2 7 6-2 8-2 17-5 17-86 20-127 95-186 149" fill="#31292A" opacity="1"/><path d="m3120 1341 16-8c66 43 128 87 195 136 10 14 18 22 24 33-34 45-65 87-100 128-112 0-219 0-328-3 4-15 7-30 15-40L3120 1340" fill="#F7F5EF" opacity="1"/><path d="M3659 1096c-20 30-40 62-65 93 10-23 24-46 40-73l25-20" fill="#42211D" opacity="1"/><path d="M3482 1300c4 3 4 8 2 20-23 30-43 56-64 80l-3-3c20-32 42-64 65-98" fill="#F6A080" opacity="1"/><path d="M3726 1018a423 423 0 01-55 68c-2-7 0-11 0-15 3-2 6-3 11-10l17-22 5-5 10-12 12-4" fill="#42211D" opacity="1"/><path d="M3947 769c-5 14-12 27-23 40a280 280 0 01-4-55c8 1 16 7 27 15zm-146-116c16 7 32 19 49 33-16-8-32-19-50-33" fill="#C05D4B" opacity="1"/><path d="m3378 1448 36-50c3 0 5 1 5 5a342 342 0 01-40 47v-2" fill="#F6A080" opacity="1"/><path d="M3668 1070c2 5 1 9-1 16l-7 8-24 19a210 210 0 01 32-42zm90-99c3 4 2 8 0 15l-1 4c-4 3-6 6-8 10h-2l-8 10h-12a310 310 0 01 31-39" fill="#C05D4B" opacity="1"/><path d="m3357 1500-24-28c10-5 20-8 34-10 3-2 4-1 4 2l-14 35" fill="#F6A080" opacity="1"/><path d="M3846 880c-7 10-17 21-30 33 6-10 16-22 30-33zm34-36a120 120 0 01-27 34 120 120 0 01 27-34zm-30-152c10 4 20 11 30 22-9-4-20-11-30-22" fill="#C05D4B" opacity="1"/><path d="M3503 1269c0 5-4 12-10 20 0-6 4-13 10-20" fill="#F6A080" opacity="1"/><path d="M3695 1040c0 6-5 12-12 20a40 40 0 01 12-20zm85-96c1 4-1 10-6 16 0-4 1-10 6-16zm17-14c0 4-4 8-10 13 0-4 3-8 10-13zm96-200c5 0 10 2 16 7-4 0-10-2-16-7zm25 80c0 5-5 9-11 13 0-4 4-8 10-12zm-150 152c2 2 0 5-4 9-1-3 0-5 5-10zM3884 720c3-2 6 0 9 4-2 1-6 0-10-4zm17 104c3 4 1 6-3 8-1-2 0-5 3-8zm-10 10c3 4 2 6-3 8-1-2 0-5 3-8zm-180 189c2 2 0 5-6 10 0-2 2-6 7-10" fill="#C05D4B" opacity="1"/><path d="M3727 1012c2-2 4-2 10-3 0 3-2 6-7 10-3 0-3-5-3-7" fill="#42211D" opacity="1"/><path d="M3370 1460c0-4 2-7 6-10 2-2 3 0 3 2-2 6-5 8-8 9l-1-1" fill="#F6A080" opacity="1"/><path d="m2234 1870-74 35-56 23c-5-16-12-32-13-49-3-31-3-55-40-75-29-16-40-61-66-102-14-5-43-14-77-23-15-10-25-19-36-31 0-9 0-14 5-19a5345 5345 0 00 305 10c6 0 12-9 21-15 0-12 0-24-5-31l-191-258-105-152-171-320c-8-15-15-30-22-49a1310 1310 0 01 96-64c24-14 47-30 72-43 57-30 64-27 91 30 15 29 27 60 43 89 8 13 23 22 38 32 3 0 3 0 2 4 12 23 24 41 37 63 8 15 14 25 20 40 2 18 1 31 4 44 12 52 25 105 40 156 4 13 21 21 34 32l7 6c58-10 112-21 170-34 35 4 66 7 96 16a8072 8072 0 01 11 318c3 26 7 46 7 70a3560 3560 0 00 36 185l-23 18c-5 1-9 2-20 0-24 4-42 10-60 15-7 4-15 7-28 8-6 0-8 2-10 4 0 0 0-2-4-2l-26 15c-9 4-18 9-30 12-6 0-8 3-10 5 0 0-1-2-4-2l-46-16-2 45-16 10m-8-235s-1 0 0 0" fill="#061625" opacity="1"/><path d="m1377 1605-12 9c-2 0-3 0-3-2-15-16-30-28-43-43-16-20-28-42-41-66l11-24c2-2 4-7 7-8l160-170c4-2 6-5 10-10 27-30 52-60 80-88l14-1 99 120c2 4 3 7 0 9a1100 1100 0 01-282 274" fill="#FAF9F5" opacity="1"/><path d="m1662 1329-2-4a5570 5570 0 01 174-110c20-12 40-21 64-32 39 50 73 100 105 153-52 40-103 73-152 110-24 19-44 43-68 62-42-61-82-120-121-180" fill="#F3A748" opacity="1"/><path d="M1543 1203c-25 29-50 58-78 87-4 0-6 0-5-4 2-13 1-28 7-31 42-27 53-55 16-95-10-10-8-28-8-42l23 4 1 2c4 5 6 7 10 8l1 10 33 61zm-215-222 13-8 10-4s3 1 6 5a1061 1061 0 00 42 47l22 18 6 5 21 18s2 4 2 9c0 10 0 14-3 18-31-16-59-33-90-51l-29-57" fill="#AC705B" opacity="1"/><path d="m1450 1090 1-18c16 12 32 27 47 46-7 3-13 1-23-3-8-7-10-11-15-18-3-5-6-7-10-8zm-100-125c0 4-3 5-7 6a402 402 0 01-42-57 380 380 0 01 50 51zm195 238a349 349 0 01-34-60c16 15 32 33 48 55-3 4-7 4-14 5zM1390 1006c-10-7-20-18-31-31 10 7 20 17 31 30zm58 52c-6 0-12-6-20-13a30 30 0 01 20 13zm-28-22c-6-2-12-6-19-14 6 2 12 6 20 14zm88 93c-3 2-5 0-8-5 2 0 4 1 8 5" fill="#86A3A3" opacity="1"/><path d="M1560 624c1-1 4 0 9 4-2 0-6 0-10-4" fill="#172A3C" opacity="1"/><path d="M818 2370c43 3 85 5 127 12 17 3 32 16 50 30 13 21 20 40 32 51 45 40 70 90 65 153v16c-1 6 0 9-3 15l-65 120a300 300 0 01-39 53c-58 0-113-2-168-4-2 0-3-2-6-10 5-25 12-45 20-67 10-72 20-142 22-212 2-57-30-92-88-104 0-1-4-3-1-6 19-4 35-5 55-7l-6-39h5" fill="#FAF8F6" opacity="1"/><path d="M809 2370c6 14 7 26 10 40-20 2-36 3-60 7-64 0-120-4-180-10l-20-12c-7-8-15-13-22-18-2 7-5 14-10 21H510c0-13 0-26 2-44 97 3 195 10 297 17" fill="#191012" opacity="1"/><path d="M815 2821c57-3 112-1 174 0 32-26 57-50 85-78l12-11 6-2 12-10 20-18c5-5 7-8 12-11l8-7 17-13h4c45-3 85-3 125-4a5280 5280 0 00 0 218v190c-111 20-222 37-340 54l-30 10h-4c-16 2-28 6-40 9h-39c-10-108-16-215-22-327" fill="#B64D42" opacity="1"/><path d="M830 2740c-7 20-14 40-21 65-44 6-88 8-132 9-51 0-102-1-156-4a60 60 0 01 3-37c20-9 37-13 56-14 63-2 123-7 188-11l62-7" fill="#170F10" opacity="1"/><path d="M1883 3485c49-53 98-105 146-165 25-62 53-116 83-168 72 140 197 196 342 230l150 18 140-30c69-33 136-61 198-99 37-23 66-60 102-90a1720 1720 0 01 68 133c8 21 15 41 28 57 22 27 47 50 72 79l10 8v3c-18 13-33 27-50 28-54 3-108 0-162 2-14 0-27 11-44 19l-46 5 220 284 109 166c50 92 100 180 147 270 18 33 30 69 44 104l-32 24-87 64-111 57c-16-5-35-10-40-21-17-32-29-67-47-106-37-58-69-110-101-166l-70-247-190 60c-27-12-70 35-72-30-3-86-8-174-10-260-1-62-5-122-52-173-10-27-17-56-35-70-10-10-45 0-60 10-25 20-25 49-11 77-33 17-52 35-53 73a7840 7840 0 01-23 379c-35-11-65-25-97-33-22-5-47-2-74-3-7-2-10-3-15-8-37-44-56-46-78-14h-3a593 593 0 00-37 100c-12 45-20 92-30 139h-4c-42 44-86 85-88 149l-30 44a1080 1080 0 01-68 87c-3 0-3 0-4-3-17-8-33-13-48-18v-3c-11-8-21-12-31-16v-3c-24-18-47-32-70-46 0 0-1 0 0-4-14-11-27-19-40-27v-4c-8-7-15-10-22-14 0 0-4-1-5-5 76-146 154-288 233-432l70-104c69-92 135-180 210-283H2040c-53 0-106-1-160-5l2-19" fill="#071623" opacity="1"/><path d="m2750 4287 40 42c-8 26-11 55 27 75-50 30-36 80-42 122a506 506 0 00-386-5c-10 3-19 6-30 6-2-10-2-18 1-28 9-27 27-55-16-69-5-2-7-5-8-8 13-29 24-58 38-86 8-16 20-29 29-48 116-80 232-70 347 0" fill="#3C221B" opacity="1"/><path d="M2753 4287c-118-68-234-78-353 0a74 74 0 01-40-16c18-60 34-116 52-172 0-1 1-4 4-6l30-33c6-4 10-7 18-10 80-38 154-33 226 15 3 2 10-3 16 0 12 20 25 35 32 53 16 44 28 88 42 136v24c-9 3-16 7-27 10" fill="#F9F6EF" opacity="1"/><path d="m2360 4530 29-10c128-55 255-40 390 8 22 12 37 22 52 33-4 20-10 40-17 60a460 460 0 01-62-15 483 483 0 00-342-6l-21 5-9 5-32 7-29 8c-3-13-6-25-7-44a290 290 0 01 18-40s0-2 4-2l27-10" fill="#F6DFB6" opacity="1"/><path d="M2443 4060c-8 10-16 21-28 30-15-22-22-50-39-57-50-21-102-35-154-50-8-2-27 10-30 18-22 73-42 147-64 227l51-9 3 3c-39 38-76 78-116 114-11 10-23 43-46 8 0-4 0-4 3-6l89-147 2-2c25-80 47-159 69-237 0 0-2-1 1 0 3 0 7-4 9-4 2 0 6 0 10 2 20 8 40 13 58 20l17 6c43 15 82 25 117 40 19 10 32 30 48 44" fill="#D89B40" opacity="1"/><path d="m2330 4540-19 37c-23-13-51-24-68-45-25-31-30-70-2-105 26-35 58-21 92-6l12 13c6 26 9 47 12 68 0 7 0 15 2 25-6 6-14 9-26 8-3-28 0-52-5-74-3-12-20-25-34-29-10-3-37 8-37 12 0 29 0 60 13 85 5 11 38 8 60 11" fill="#DD9B44" opacity="1"/><path d="M2410 4100c-16 55-32 110-51 168-40-15-75-37-114-52-16-6-38 2-60 5-3 0-5 0-5-5 13-12 27-27 40-26a230 230 0 01 69 25c70 34 70 34 70-42 1-37 12-64 52-73" fill="#D89B40" opacity="1"/><path d="M2320 4628c7-5 14-7 26-9a210 210 0 01-13 58c-6-13-10-30-14-49zm32 155c6 2 11 7 17 15-6-1-11-7-17-15zm-20-70c4 2 8 8 10 15-5-3-8-8-10-15zm67 140c3 2 7 7 10 14-3-1-6-6-10-14" fill="#633A27" opacity="1"/><path d="m2350 750 14-20c20-2 38-5 53 2 50 20 93 62 155 47 32-8 64-13 96-20 40 12 86 15 116 61l-64 20c29 19 49 30 70 50 0 10 0 14-4 20a365 365 0 01-436-5v-17c4-40-20-78 15-109 2-2-10-19-15-29" fill="#3B201B" opacity="1"/><path d="M2670 756c-34 10-66 15-98 23-62 15-105-26-155-47-15-7-33-4-53-4-6 0-8 0-13-5-3-17-2-28 3-40 87 30 168 69 260 50 56-13 110-33 167-45l18 53c-46-32-86-8-129 15" fill="#633A27" opacity="1"/><path d="M2801 744a310 310 0 01-18-58c53-28 63-66 46-115v-2c83 30 110 92 64 154-22 30-50 53-92 20" fill="#DC9532" opacity="1"/><path d="M3127 720c-6 27-17 54-26 81-1 4 6 11 14 20a485 485 0 01-56 84l25-70-14-7a840 840 0 01-65 56l-5-4c41-53 82-106 127-160zM2790 910v-16c47 10 94 24 147 39 8 3 9 4 8 7-21 5-41 14-58 10-32-7-63-21-95-35l-2-5zm152 22c16-18 33-35 54-52 4 0 7 3 7 7-6 12-12 20-21 28l-35 22-5-5zM3155 650c-4 22-12 44-22 68 5-21 12-44 22-68" fill="#372108" opacity="1"/><path d="M2835 4561c-20-10-34-21-53-33-1-45-16-94 39-123 59-9 79 4 88 52 11 56-7 83-74 104" fill="#855E4A" opacity="1"/><path d="m3022 4195 98 160c0 10 0 16-4 25-14-10-25-22-36-34l-4-8-26-28-1-3c-19-19-37-35-54-50l-2-4c-3-5-4-8-1-11 12-9 20-16 28-28l2-20" fill="#C78F46" opacity="1"/><path d="M2988 4242c0 3 2 6 5 10-8 2-22 3-26-2-35-46-70-26-108-4-24 14-50 25-78 35-2-10-2-17 3-27 23-10 43-13 59-23 70-43 85-42 145 11zm89 105c14 11 25 23 38 38a350 350 0 01 16 40c-20-22-66-30-54-78zm-83-87a350 350 0 01 55 47 350 350 0 01-55-47zm56 53c8 5 15 13 24 24a86 86 0 01-24-24zm80 120a70 70 0 01 17 24 110 110 0 01-16-24" fill="#421B03" opacity="1"/><path d="M1325 981a540 540 0 01 33 60c5 20 9 35 9 49-67 9-75 70-112 110-48 32-92 64-140 97l-10 8-43 7c-7-10-16-20-14-26l30-81c61-62 121-125 183-185 17-17 40-26 64-39" fill="#FADFAD" opacity="1"/><path d="M1075 1207c-7 25-18 52-27 80-2 6 7 16 14 28 3 8 1 11-3 16l-8 10c-65 10-70 7-92-68 4-8 8-12 15-18l101-48" fill="#F2E8CA" opacity="1"/><path d="m578 2756-54 13c-7-22-12-44-13-67v-298c3-5 8-5 20-5h30c5 1 10 4 18 13v344" fill="#C47B5B" opacity="1"/><path d="M3444 4340c-18-36-30-72-48-106-47-90-98-177-143-270 30-14 58-22 83-36 53-29 105-60 160-89a3250 3250 0 01 95 110c53 73 106 142 160 215 27 40 50 81 84 113 37 36 83 63 125 94v5c-43 38-85 76-130 110-95 73-190 65-287-6-34-47-65-93-100-140" fill="#575A5D" opacity="1"/><path d="M3931 4100a1340 1340 0 01-91 96 440 440 0 01-57-75c0-12 0-21 2-30 18-10 33-18 45-30 57-56 113-114 171-168 10-10 33-9 50-9l18 58c-3 5-6 7-12 10-35 20-71 34-60 82h-6c-5 3-7 6-8 10 0 0-1-2-4-1l-6 10h-3c-36 0-54 12-39 48" fill="#F6C890" opacity="1"/><path d="M4380 4016c-6 6-11 8-19 12-61 7-94-39-135-69-19-14-34-31-52-50a40 40 0 01 20-20c30 16 60 27 83 46 51 44 51 47 100 0 60-54 115-111 171-167-6 26-10 54-20 77-12 25-31 45-48 71l-80 80-20 20" fill="#24232B" opacity="1"/><path d="M3783 4125c17 24 34 48 54 73l99 130c8 11 16 24 24 40-42-28-88-55-125-91-33-32-57-73-82-115l30-37" fill="#3C3434" opacity="1"/><path d="m4190 3890-20 17a1200 1200 0 01-106 69c-4-10-4-18-4-26l12-8c18-20 32-35 48-55a580 580 0 01-49-30c1-5 3-8 7-12 8-5 13-9 22-11 57-10 77 2 90 56" fill="#F4D7B3" opacity="1"/><path d="M4057 3951c3 7 3 14 3 26 0 4 0 3-3 4l-17 18a637 637 0 01-40 35c-14-48 22-63 57-83zM3934 4100c-18-34 0-45 36-45-8 15-20 30-36 45" fill="#F8D1A0" opacity="1"/><path d="M4043 3998c2-5 7-11 15-17-2 5-8 10-15 17" fill="#F4D7B3" opacity="1"/><path d="M3976 4053c-2-3 0-6 4-10 2 3 0 7-4 10zm10-10c-2-3 0-6 4-10 2 3 0 7-4 10" fill="#F8D1A0" opacity="1"/><path d="M4732 2023c120 85 135 206 118 342-49-5-97-16-145-22-20-3-42 4-70 8-102 3-195 5-290 4-7-9-15-15-15-22l-30-287c92-20 182-47 275-57 47-6 98 20 151 31l6 3" fill="#F69F15" opacity="1"/><path d="m4682 3150-217 19c-55-8-106-17-160-32a3260 3260 0 01 30-304 56846 56846 0 01 315-14l192-27c22 135-8 252-125 342l-28 15s-5 0-7 2" fill="#F6A015" opacity="1"/><path d="m4348 2358 282-5c4 0 5 4 6 10v25h-2l-38 10c-14 20-24 42-37 62-5 0-7 0-10-4 4-36-17-37-40-35-44 3-88 6-133 7-13-4-25-6-40-8-8-17-13-33-16-52 10-5 19-8 28-10" fill="#2C1F17" opacity="1"/><path d="m4600 2399 34-12c5 118 7 236 10 355 0 24 4 47 6 74 0 3-5 4-7 0-10-14-17-26-24-40l-50-60c0-7 0-11 3-19 4-30 5-59 8-87l20-211zm38-12c-3-6-2-13 0-23 2 5 3 14 0 23" fill="#FCD99D" opacity="1"/><path d="M1293 4191c-47-48-94-96-139-148 7-14 11-23 20-33 14 6 24 14 36 18l84 30c25 12 47 22 68 35a963 963 0 01-36 78l-33 20" fill="#FCD9A9" opacity="1"/><path d="m1177 4476-10-9-32-28c-10-10-15-20-22-33 20-16 40-30 63-40a250 250 0 01 34 39c15 16 28 29 40 46 0 23 0 40-3 59-5 0-7 1-9 2v-4l-19-8v-2l-13-7c-8-5-17-10-29-15" fill="#2B2734" opacity="1"/><path d="M963 3912c-6-3-8-5-11-13 20-52 60-42 99-37 5 6 8 10 10 18l-11 80-87-48" fill="#FBEFD6" opacity="1"/><path d="M1293 4195c10-10 20-16 37-23 17-2 27-1 37 2a2617 2617 0 01-138 155h-3l-33 10 75-100c9-13 16-27 25-44" fill="#6F6563" opacity="1"/><path d="M1051 3963c2-28 6-53 13-81 8-1 12 0 16 6 30 43 60 82 90 122-5 10-10 20-17 30-36-24-68-50-102-77" fill="#FCE3BD" opacity="1"/><path d="M1192 4340c10-4 20-7 34-7-4 25-10 47-17 69-10-12-20-23-30-38 0-6 0-8 5-14l6-7s0-2 2-3" fill="#70A6B7" opacity="1"/><path d="M1188 4342c1 2 0 4-2 5h-6l8-5" fill="#6F6563" opacity="1"/><path d="M2413 4603c110-49 220-34 335 3a330 330 0 01-58 4c-91-1-183-3-277-7zm-32 9c0-2 3-4 6-5 0 2-2 4-6 5" fill="#633A27" opacity="1"/><path d="M3997 1874c18-11 36-22 60-33 30-6 54-8 74-19a6020 6020 0 00 250-135c35-20 67-44 104-66l48-6-51 117h-4c-15 12-26 25-40 40-4 12-5 20-6 30h-4c-30 8-33 25-20 47l3 17c7 23 12 43 20 61 24 52 23 50-29 64-50 15-98 38-150 62-7 8-10 10-16 10-2 0-6 0-8-3-20 0-40 3-58 7-87 20-172 43-260 57-33 6-47 20-49 49-2 33-1 66-6 100l-227 8c-8 60-13 118-18 178l-5 64c-33-6-59-11-85-14-49-4-75 30-60 84l1 27 10 60h54l33-8c46-9 53 0 54 47 0 30 10 62 16 96 0 6-1 8-4 10h-5c2 0 4 0 8 4 1 5 0 8-3 11-18 40-3 60 35 60 54 0 109-7 163-10 32 0 50 13 48 48-2 37 0 73-5 110-4 40 10 47 49 33 21 3 39 6 58 11 15 4 26 6 42 7 15 0 25 0 38 3 10 4 20 6 32 8 11 0 19 0 29 2 20 5 39 6 57 8 70 20 140 43 212 58 48 10 68 28 39 66-48 60-23 105 14 154 35 47 70 94 103 143 8 12 8 30 8 47-87-41-170-86-254-128L4070 3347l-110-57c-12-10-22-20-34-26L3500 3082c-53-23-83-11-110 40-12 22-20 45-34 68-55-24-107-50-160-72-20-8-43-4-65-10-6-52 23-32 40-23 30-40 61-76 83-116 35-64 72-130 94-200a450 450 0 00 0-267c-16-57-40-113-60-168-4-9-18-14-27-20 0 0 1-4 6-7 30-58-5-94-37-132-15-16-35-37-35-56 1-70 99-126 165-95 15 81 78 130 138 107 36-13 70-32 106-47 89-39 179-75 267-115 43-20 82-47 122-72 4-2 3-15 4-23" fill="#061624" opacity="1"/><path d="M4070 3350a14294 14294 0 01 474 243c28 57 34 112 5 171-57 60-113 117-171 171-50 47-50 44-100 0-23-20-53-30-84-45-17-54-37-66-97-60l-53-39c-58-47-116-94-175-145a90 90 0 01 8-27c66-90 130-180 194-270" fill="#54595C" opacity="1"/><path d="m4318 2370 17 52c0 10-2 14-8 20-5 6-8 10-10 15l-4 1c-50 100-39 196 3 296 4 24 7 45 6 66l-137-8a367 367 0 01-57-35l-28-41c-3-5-6-6-9-7l3-4c-3-9-7-15-11-20l-25-56c0-48 3-88 8-130 23-34 44-66 64-99h3c5-5 7-10 10-14 5-2 6-4 10-7 5-3 6-6 9-12 14-4 26-6 40-7l11-1c7-1 10-2 19-1l86-7" fill="#FCFBF8" opacity="1"/><path d="M4050 3100c-10 0-21 0-37-4-17-4-30-5-43-6-17-3-35-6-58-13-10-20-19-37-22-55-8-48 19-100-22-148l1-203a50 50 0 01 23-10l43-1 105-10c-1 28-10 58-2 83 23 85 53 167 78 251 7 25 8 50 12 81 7 6 19 17 28 32L4110 3110c-7 0-15 0-27-4-14-4-23-5-33-6" fill="#2C1D1C" opacity="1"/><path d="M4189 2813c43 2 86 5 134 10l7 10-29 302c-29 0-58-5-88-15 6-16 16-25 16-34 1-60 4-122-3-182-3-32-24-61-37-91" fill="#F9DCB0" opacity="1"/><path d="M4185 2812c17 30 38 60 41 92 7 60 4 121 3 182 0 10-10 18-18 30a1141 1141 0 01-126-324c17-8 30-10 44-12l56 32" fill="#F5B35E" opacity="1"/><path d="M4043 2650c-37 3-70 7-107 6 0-38 2-72 9-106l118-29-6 125c-4 4-8 4-14 4" fill="#342C2C" opacity="1"/><path d="M4128 2777c-13 5-26 7-43 11a222 222 0 01-30-50c0-2 11-10 22-10 8 2 11 1 14 0v4c2 4 6 5 10 7 9 11 18 23 27 38" fill="#D6A677" opacity="1"/><path d="M4113 3112c11-6 25-9 43-12 7 5 10 10 14 17-18 1-36 0-57-5" fill="#1F2326" opacity="1"/><path d="M4094 2725c-6 4-9 5-14 3l2-18c5 0 10 6 12 15" fill="#342C2C" opacity="1"/><path d="M2730 601c-44 3-90 0-132 11-90 23-166-14-242-50-12-6-25-27-24-38a470 470 0 01 102-241c42-50 83-77 143-80 16-1 33 3 54 5l-32 50 8 11 56-26c70 67 124 146 137 248 6 43-4 76-52 86-7 2-11 11-18 20v4" fill="#FBA102" opacity="1"/><path d="M2825 570c20 50 11 88-43 112-57 18-112 38-169 50-90 20-172-20-260-50l-24-5c-7-4-11-6-17-12l-10-38c-2-8-3-12-3-20l-1-28 8-10c49 17 94 36 140 54a365 365 0 00 283-19l1-3 95-30" fill="#F9F1D6" opacity="1"/><path d="M918 1260c-35-23-70-50-106-79 2-8 6-13 10-18 32 30 64 62 96 97" fill="#163F5B" opacity="1"/><path d="M2347 751c8 10 20 26 18 28-34 30-11 69-15 107a908 908 0 01-113 32c-59 12-74-47-111-70-20-12-38-27-50-45-66-93-118-192-71-309 17-42 49-80 73-120 6-10 8-24 13-40a390 390 0 01 50-19l209-60a40 40 0 01 24 10c3 2-3 14-5 21-27 72-52 145-80 217a180 180 0 01-44 72c-40 33-54 105-24 157 27 46 62 52 126 20" fill="#2D1815" opacity="1"/><path d="M2346 907c7 0 10 0 13 10 8 80 20 153 80 207a1380 1380 0 01-102 36l-66 11c-13 4-21 8-32 14-8 2-13 3-20 1l-46-57c-2-8-2-13 0-21-6-24-14-46-23-70v-10l-12-30v-7c-3-9-6-14-10-20v-3c-8-19-18-33-28-48v-4l-10-16v-20h4l28-2s-1 2 0 4l10 7s-1 0 0 2c6 5 10 7 16 10 62 72 128 48 198 6" fill="#F29F20" opacity="1"/><path d="m2052 858-60-120 7-11c24 32 47 62 70 100 0 20 0 32-3 43l-14-12" fill="#B7894F" opacity="1"/><path d="M2069 870c0-11 0-24 2-40 16 10 32 27 50 45-7 4-15 4-27 3l-8-10-3 2 7 10c0 5 0 10-3 16a89 89 0 01-18-25zm78 28c-4 0-10-2-15-7 4 0 9 2 15 7zm-16-12c-2 0-5 0-10-5 3-1 6 0 10 5" fill="#C98C32" opacity="1"/><path d="M4692 3150c4-5 12-8 23-13-4 4-12 8-23 13" fill="#491D0A" opacity="1"/><path d="M2298 610c1 5 2 10 0 19 3 17 10 28 15 40 5 2 10 4 16 12-8 23-17 40-25 56-18-12-45-21-50-37-10-30-5-63-6-95 2-3 4-5 14-2l36 8" fill="#F59517" opacity="1"/><path d="M2245 606c4 30 0 64 9 94 5 16 32 25 50 37 8-16 17-33 26-54 6-4 10-4 18-2v41c-24 26-47 52-81 32-40-23-51-95-22-148zm54 0c-10 3-20 1-34-3 6-10 16-16 30-24 4 8 4 16 4 28" fill="#D49142" opacity="1"/><path d="M3058 908c20-27 40-55 60-86 0-4 0-4 3-5a21474 21474 0 01 50-114c25-23 50-23 76-5 42 29 86 56 130 83 30 18 28 42 13 68-73 126-148 252-220 378-20 34-34 70-50 110-60 86-119 167-178 250a76 76 0 00-12 43c83 7 160 6 238 11 23 2 45 20 68 30l-4-2a40 40 0 00-15-2c3 5 5 10 7 18a1510 1510 0 01-68 75l-32 63c-16 26-28 50-43 78-29 44-60 85-51 140v-1h-4c-64-157-198-220-355-262-12-10-24-18-24-25 3-54 8-108 16-166 9-87 17-170 20-255 3-67-1-135 0-204 6-3 10-5 16-4a7990 7990 0 00 267 65c10-6 18-10 20-17l43-157 30-106" fill="#081622" opacity="1"/><path d="M880 3149c8-4 20-8 36-10-8 3-20 7-36 10zm43-10a100 100 0 01 24-10c-5 4-13 7-24 10" fill="#2F1919" opacity="1"/><path d="m810 3476 265-132c63 91 123 184 187 280a60 60 0 01 4 34c-78 64-152 127-229 189-53-27-62-24-107 41a3670 3670 0 00-108 80c-6 3-10 4-21 1a13250 13250 0 01-175-164c-13-25-30-50-38-75-25-73-1-137 65-174 50-28 104-51 158-80" fill="#F8A951" opacity="1"/><path d="M624 3810a4180 4180 0 01 173 159c-2 4-10 9-10 7-55-54-110-108-163-166" fill="#432A16" opacity="1"/><path d="M4320 2368c-30 6-57 8-88 6 0-107 3-208 7-310l12-7c15-5 28-7 45-10 14 95 23 190 34 286 0 7 8 13 15 22-6 5-15 8-25 13" fill="#FBD7A2" opacity="1"/><path d="m1210 4405 19-72c0-4 0-4 4-4 11-9 20-18 27-27l108-129c2-3 2-5 6-5 10-9 17-18 26-30 30-34 56-66 86-98 6-7 9-13 14-21 5-6 8-9 14-13 14-20 25-39 38-60 31-47 60-90 92-135 15-7 25-13 40-17l249 104c-77 142-155 284-232 430-34 53-66 104-103 158l-24 12c-98 58-188 55-275-17-15-12-32-23-48-34l-40-42" fill="#6DBED0" opacity="1"/><path d="M1730 4354c12 5 25 13 38 24-7 0-15-3-25-7-6-6-10-10-13-17" fill="#2C1715" opacity="1"/><path d="M1578 4497c5-3 10-6 19-8 0 7-4 15-10 24-3 2-5 0-7-5l-2-11" fill="#3D1D1C" opacity="1"/><path d="M1708 4335c6 2 13 5 20 13-6-1-12-6-20-13zm62 50a440 440 0 01 69 43 440 440 0 01-70-43zm102 68c13 2 29 7 46 15a160 160 0 01-46-15zm-32-19c9 1 19 5 30 13-10 0-20-5-30-13" fill="#2C1715" opacity="1"/><path d="M933 3890c42-67 51-70 106-42 7 6 9 10 10 12-38-3-77-13-99 37-5 0-10-3-17-7" fill="#FCE3BD" opacity="1"/><path d="M4485 1730c14-37 30-75 48-115a470 470 0 01-49 5c-4 0-6-2-6-4l2-6h3c64-26 96-69 86-136-3-18-8-36-8-54 50-10 4-42 20-60 0-2 3-3 3-3 6 35 20 72 16 107-5 70-10 140-61 200a899 899 0 01-54 66zm59-423 22 13c3 5 4 9 5 16 0 3-1 4-5 4-10-12-16-22-22-33zm28 31c4 4 7 9 11 16 1 3-1 4-4 3-6-6-7-11-10-17 0 0 2 0 3-2" fill="#301217" opacity="1"/><path d="M1574 4498c4 0 5 3 5 8-88 60-179 87-278 30-10-5-22-4-38-6-4 0-3 0-3-3a100 100 0 00-10-17v-60c17 7 34 18 50 30 86 72 176 75 274 17" fill="#12293B" opacity="1"/><path d="M4410 1847c-15-20-13-37 19-45 2 4 2 8 0 14-6 11-12 20-20 30" fill="#401D0A" opacity="1"/><path d="M4566 1340c6 6 7 11 12 18-13 20 33 52-19 60-20-22-33-42-47-64l-4-6c-6-6-10-8-16-10v-3l-10-8v-4L4380 1230v-3l-20-16-2-3-30-35c-2-16-6-30-10-42l12-77 64 78 10 10c30 31 57 62 83 96 2 7 3 9 5 11v3l8 8v3c14 17 28 31 42 45 7 10 13 21 23 33" fill="#37181E" opacity="1"/><path d="M4543 1304c-14-10-28-25-41-43 14 10 27 25 40 43zm-42-48c-2 1-5 0-10-5 3 0 7 0 10 5zm-8-10c-2 0-3-2-3-6 2 0 4 4 3 6" fill="#301217" opacity="1"/><path d="M3126 798c0 4 0 10-5 20-1-5 0-12 5-20" fill="#372108" opacity="1"/><path d="M4440 1770c12-13 23-26 38-38 2 6 0 12-3 20l-8 10c-4 4-7 6-15 8h-11" fill="#301217" opacity="1"/><path d="M1247 4510c6 5 10 10 13 18-4 2-8 1-15 0-4-4-5-7-7-13 2-4 4-4 10-5zm-26-7c4 0 10 1 17 6-4 0-10-1-17-6zm-13-10c2 0 5 0 10 5-2 0-5 0-10-5" fill="#3D1D1C" opacity="1"/><path d="M4438 1773c5-3 7-2 12-2-2 10-7 18-15 29-2-7 0-16 3-27" fill="#401D0A" opacity="1"/><path d="M2450 3380c-140-32-266-88-340-230-21-53-56-42-90-33l-8-5c-6-28-10-55-14-80 0-2-3-3-4-2l-9 8c-4-165-6-333-8-500 0-63 0-126 3-194l10-17v-6c17 0 35 0 57 4 23 8 40 14 57 15 159 0 317 0 475 4-54 8-106 12-163 16-40 7-77 18-114 19-49 1-66 26-72 70-68 48-70 99-12 140 5 4 9 10 13 20l20 34 38 40 20 40 2 10v50c4 7 7 11 10 20l-28 83c71 62 146 130 223 193 20 17 50 21 73 34-22 38-45 71-63 106-27 53-50 107-76 160" fill="#272B30" opacity="1"/><path d="M3261 2314c9 6 23 11 26 20 22 55 45 110 60 168 26 89 30 180 1 268-22 70-59 135-94 200-22 40-53 74-83 115-17-9-46-29-40 27l-1 30c-26-8-50-18-75-29L3040 3180c-33 30-62 68-100 91-60 38-128 66-197 95 23-31 49-60 75-88L2780 3230c30-52 57-103 90-150 22-30 53-54 80-81 53-56 104-115 160-168 29-28 59-51 60-97 1-132 6-263 12-394 8 0 13 0 18 2 3 5 6 7 11 10 39 13 38-18 49-38" fill="#0F1C27" opacity="1"/><path d="M2550 2240h-160l-3-53h162l-14-233c-47-21 3-42 23-65v90h45l-18 206h161l3 55H2550" fill="#1C1F20" opacity="1"/><path d="M3360 2020c-66-27-164 30-165 100 0 18 20 39 35 55 32 38 67 74 36 130-53-110-127-200-236-262 0-3 0-3 4-3 50 20 72-25 107-36 8 41 35 30 54 22 47-20 93-46 142-68 10 22 17 42 23 62" fill="#0F1720" opacity="1"/><path d="M2660 1590c-5 55-10 109-13 163 0 7 12 14 20 24h-173c5-8 15-16 20-20-14-60-27-121-34-182 24 12 42 24 58 40-28 27-29 58-5 81 14 15 48 28 62 20 18-10 36-42 34-62-3-20-32-35-47-55 27-5 53-7 78-8" fill="#12171C" opacity="1"/><path d="M2580 2340h-476c-17 0-34-7-53-14 263-4 526-5 795-2 4 8 4 12 0 16H2580" fill="#1C1F22" opacity="1"/><path d="M2850 2340v-15c134-5 268-7 406-10-6 19-5 50-45 35-5-7-8-9-11-10h-350" fill="#0F1720" opacity="1"/><path d="M2253 1860a170 170 0 01 0-45c16 6 30 10 46 17a190 190 0 01-46 28" fill="#0E171D" opacity="1"/><path d="M2414 1791c14-6 32-11 53-15a210 210 0 01-53 15" fill="#12171C" opacity="1"/><path d="M2345 1815c5-4 12-9 24-13-4 5-12 9-24 13zm30-12c0-2 1-4 4-4 1 1-2 4-4 4zm-70 30c0-2 0-4 4-5 0 1-2 5-4 5" fill="#0E171D" opacity="1"/><path d="M1987 2320c3 1 3 5 0 8l-8 2c1-3 3-7 8-10" fill="#343738" opacity="1"/><path d="M1978 2332c2-2 4-2 10-3 0 3-2 6-7 10-3 0-4-2-3-7" fill="#191C21" opacity="1"/><path d="M1055 1341c-2-3 0-6 8-10 23 9 41 18 59 27l82 43c3 3 5 5 6 10 26 26 52 48 78 70-3 6-6 13-13 23l-7 5c-70-56-140-112-213-168" fill="#59504E" opacity="1"/><path d="M1268 1513c0-4 4-7 6-7 17 21 30 44 45 63 12 15 28 27 42 43-20 10-40 15-63 22l-6-42a1610 1610 0 01-69 18c13-31 30-63 45-97" fill="#A0E5F2" opacity="1"/><path d="M1293 2666c-43 2-83 2-128 1-5-3-5-5-2-7 4 0 6 0 10-2l10-8h11c78 0 80-2 76-58-4-48-41-38-75-42a580 580 0 01-55-20l2-2 132 4c38 26 47 82 20 134" fill="#361A19" opacity="1"/><path d="M1680 3792c-10 6-21 12-38 16-32-37-55-76-87-107-48-49-103-92-155-137 17-20 31-40 50-57 70-63 140-125 214-187 73 54 142 108 215 164 3 7 2 12 0 21l-112 146c-30 49-60 95-87 141" fill="#D56F50" opacity="1"/><path d="M1397 3563c55 46 110 90 158 138 32 30 55 70 84 108-27 47-56 90-90 135-6 2-8 2-11-2-84-87-165-170-247-257l-22-28c0-10-2-19-4-31 4-6 8-8 17-14 33-20 60-37 90-53l25 4" fill="#FBFAF6" opacity="1"/><path d="M1370 3556c-27 20-55 35-86 53-38-50-75-101-105-157-10-16 1-44 4-80l-43-24c24-14 36-20 50-30a5920 5920 0 01 180 238" fill="#B6EBF3" opacity="1"/><path d="M1379 1608a20 20 0 01 17-13c32 30 60 60 90 85 60 52 123 103 186 156 0 7 1 10 0 16v7l-2 1c-43-26-94-31-123-87-23-45-76-75-115-111a970 970 0 01-53-54" fill="#283A4C" opacity="1"/><path d="M2019 3120c35-12 70-23 88 27-25 57-53 111-80 170-14-4-27-12-47-20a283 283 0 01-10-91l49-86" fill="#EFEDE3" opacity="1"/><path d="M1966 3207c4 4 4 10 0 20-30 30-60 52-32 95 5 9-2 25-4 38-17-3-36-2-49-10-16-10-27-29-46-50 40-30 84-60 131-93" fill="#EFDAB7" opacity="1"/><path d="M1933 3360c-1-13 6-30 1-38-28-43 1-66 33-90l10 66a330 330 0 01-44 61" fill="#FCF0D1" opacity="1"/><path d="M1078 2422c-60-82-151-71-226-77v-268c56 15 102 30 149 40 70 16 140 30 210 42 30 4 40 16 40 45L1250 2460c-1 48-25 68-70 46-37-18-67-53-102-84" fill="#C34A3D" opacity="1"/><path d="M1093 2614a180 180 0 00-66-150c-13-12-19-30-28-50 22 12 46 25 68 42 25 20 48 44 74 70 0 2 0 3-5 4a190 190 0 00-26 40l-17 44" fill="#361A19" opacity="1"/><path d="M1674 1850c0-4-1-7 2-14l198-185 30 29a790 790 0 01 75 86 930 930 0 01-73 64l-38 10c-28 11-41 23-8 42l1 10c32 39 64 76 122 68 2 0 7 0 7 5v36c0 35-22 34-43 24-45-20-89-44-134-66-11-5-25-7-40-10a1658 1658 0 01-100-100" fill="#F9F7F2" opacity="1"/><path d="M1910 1830c22-20 45-40 70-60 62 60 90 135 112 214 4 14-8 38-20 50-6 5-30-8-45-14-10-6-20-15-33-20-4-10-4-20-5-38-4-8-6-10-10-12 0 0 1 0 0-4-23-40-46-79-70-117" fill="#F5F2E6" opacity="1"/><path d="M1673 1852c3-2 4 0 4 4l-4 3c-2 0-1-5 0-7" fill="#D66E4F" opacity="1"/><path d="M4030 1299c-4 0-8 0-15-3l-114-88v-2a20 20 0 00-10-7l1-4a1912 1912 0 00-112-128l2-16 2-2 8-18 2-2c5-6 7-12 10-17 0 0-2 0 0 0 5-4 7-8 9-10l10-10c12-3 19-1 26 0l17 20 13 10 1 2a610 610 0 00 38 38s1-1 2 2a740 740 0 00 50 48c0 3 1 6 8 10 12 10 20 16 30 22v1c3 5 6 7 10 9 0 0-2 0 0 2 7 8 13 12 20 17v2c0 7 2 10 0 17-6 43 18 26 37 20v4l4 28-49 55" fill="#F3B77C" opacity="1"/><path d="M4033 1300c13-19 28-36 46-56 0-4-3-14-2-26 17 3 30 8 43 12l1 3a90 90 0 00 18 10s0-2 1 0a60 60 0 00 19 12c0 3 3 5 10 10 6 6 10 10 14 17 0 8 0 13-2 20-16 53-50 47-90 33a695 695 0 00-58-35" fill="#F9C98B" opacity="1"/><path d="m4183 1279-13-14a300 300 0 01 146-135c7 13 10 26 10 43a578 578 0 01-33 34l-6 4a40 40 0 00-10 16c0 2-1-1-4 0-7 4-10 8-14 12h-3l-27 22-13 8a800 800 0 00-33 10" fill="#2C1511" opacity="1"/><path d="M3970 1108c-17-10-33-26-50-43 28-5 52 1 50 43zm150 120c-13-2-26-7-41-13l-5-4c-4-4-5-7-4-10v-2c17 8 33 16 50 28zm-201-170c-13-8-26-20-40-34 24-6 40 1 40 34zm-70-69c-7 2-14 0-25 0-4 0-4-2-4-6 15-27 24-20 30 6" fill="#491D0A" opacity="1"/><path d="M4040 1190a380 380 0 01-3-15c10 4 22 10 33 20 0 4 0 5-3 4-11-3-19-6-26-10zm-2-20c-7-2-13-6-20-13a40 40 0 01 20 12zm-31-30a70 70 0 01-27-17 90 90 0 01 27 18zm130 100c-3 0-9-3-16-7 4 0 10 1 17 6zm20 12c-4 0-10-3-17-8 4 0 10 2 18 8zm-140-101c-3 0-6 0-10-5 3-1 6 0 10 5zm-220-170c2 2 0 5-5 8 0-2 1-5 6-8zm81 38c-2 0-5-1-10-6 3 0 6 2 10 6" fill="#491D0A" opacity="1"/><path d="M4290 1210s2-2 8-2l63 2v3c7 7 13 12 20 16v3c30 40 48 86 102 94v4c3 4 6 6 10 7 0 0-2 0 0 3 6 5 10 8 16 10 0 0 2 3 2 8 4 17 9 27 12 38 10 33 20 65 27 98 10 44-22 65-53 86-8 6-11 20-17 30h-4c-37 18-88 3-107 55-75 40-146 80-218 117-26 14-53 26-80 39-67-100-135-201-199-307l220-176c38 11 73 17 93-36l34-33c2-3 4-5 13-8 13-8 20-15 27-22h4c6-4 10-9 13-13 0 0 1 3 4 1l10-17" fill="#E85A3C" opacity="1"/><path d="M3769 1610a7790 7790 0 01 196 270 12870 12870 0 01-443 216c-72 33-74 32-123-30-22-28-35-53-8-84 6-7 4-20 6-33 17-26 34-48 55-70 12-13 20-26 28-40h3c8-3 12-6 17-10h3c8-6 12-13 17-20h2c5-3 7-6 8-10h3c35-30 67-58 100-90a60 60 0 00 7-20c0 1 0 1 2 0 5-3 6-6 8-10l3 2c24-14 43-29 63-42l53-28" fill="#F2623B" opacity="1"/><path d="M3370 1464c4-4 7-6 10-11 14-17 27-31 40-49 21-28 41-54 64-80 59 111 161 180 253 263-30 34-58 64-87 93h-2c-5 4-6 7-8 10h-3c-10 7-15 13-23 20-30 30-57 60-84 90h-2c-5 4-6 7-8 10h-3c-8 7-13 13-17 20h-3c-8 3-12 6-17 10l-3 1c-7 7-13 12-19 14a1610 1610 0 00-78-84c-40-39-80-76-121-118V1630l96-128a350 350 0 00 16-38" fill="#BB8A72" opacity="1"/><path d="M3397 1953c-2 10 0 22-6 29-27 30-14 56 8 83 49 63 50 64 123 30 148-68 295-139 444-211 10-4 17-6 28-8 2 6 3 19-1 21-40 25-80 52-122 72-88 40-178 76-267 115-36 15-70 34-106 47-60 23-123-26-138-107-6-24-13-44-20-68 18-4 37-3 57-3" fill="#361618" opacity="1"/><path d="M4092 1335a5610 5610 0 01-219 176c-10-10-16-22-23-36 58-57 99-133 185-152 3 0 3-9 5-17a230 230 0 01 52 30" fill="#231213" opacity="1"/><path d="M4070 1823c28-15 55-27 81-40l221-118 106-47 2 2c-32 23-64 48-99 67a6020 6020 0 01-250 135c-20 10-44 13-70 18 0-5 4-10 10-17" fill="#301217" opacity="1"/><path d="M3653 1680c26-30 55-59 86-90 11 3 20 9 29 18-17 12-35 20-52 31-20 13-40 28-63 42" fill="#A14D33" opacity="1"/><path d="M3960 1290c-37-30-74-60-110-95-1-4 0-5 4-5l38 8v4c3 4 6 6 9 7v3c20 28 40 53 59 77" fill="#7F5B47" opacity="1"/><path d="M3964 1290c-24-25-43-50-62-78a1270 1270 0 01 110 83c-15 0-30-2-48-5" fill="#80512E" opacity="1"/><path d="M3780 1070c5 5 10 10 18 22a401 401 0 01 1 49c-14-17-61-9-38-58l18-13zm68 122c-16-15-32-30-48-48 0-3 0-4 3-4 18 17 33 33 47 50l-2 2" fill="#7F5B47" opacity="1"/><path d="M3780 1067c-5 6-10 9-17 14a80 80 0 01 15-30c3 4 3 9 2 16zm9-35c0 4 0 10-5 18-1-5 0-10 5-18zm11-20c1 5-1 10-6 18 0-5 1-10 6-17zm-48-13c-1-3 0-6 5-10 0 3-1 6-5 10zm-10 10c0-2 0-5 5-10 0 3-1 6-5 10" fill="#42211D" opacity="1"/><path d="M3810 1002c0 2-1 6-6 10 0-2 1-6 6-10" fill="#491D0A" opacity="1"/><path d="M3254 1630c4 7 4 14 1 24-8 9-13 13-20 17-22-10-44-28-67-30-77-5-155-4-235-9 103-3 210-3 321-2" fill="#040608" opacity="1"/><path d="M1872 1648a4333 4333 0 01-197 186 6050 6050 0 01-190-154c-30-25-57-54-86-85 96-80 190-158 260-264 42 57 82 116 126 180 33 42 60 80 88 119v18" fill="#D66E4F" opacity="1"/><path d="M2663 1587c-28 5-54 7-84 13-17 6-28 8-39 11l-57-39c-6-23-10-43-10-70 0-22-2-37-3-52l-10-270c0-20 0-30 5-42 14 2 25 4 36 8 16 26 32 37 53 4l126-20c2 67 6 135 4 202-4 84-12 168-21 255" fill="#2B2A2C" opacity="1"/><path d="M1877 1630c-32-38-60-77-90-117 20-24 40-48 64-67 49-37 100-70 153-107a8650 8650 0 01 194 254c6 7 6 19 0 30l-268 6h-53" fill="#FAF9F1" opacity="1"/><path d="M2170 1110a2794 2794 0 01 14 87c-10-10-28-20-32-32-15-51-28-104-40-156-3-13-2-26-2-45 1-5 4-7 6-5l12 13s1-1 0 2a80 80 0 00 10 21v7l11 30 1 10 20 68" fill="#2C140B" opacity="1"/><path d="M1933 1632c84-5 170-7 262-8-1 6-7 15-13 15-82 0-164-2-250-7" fill="#040608" opacity="1"/><path d="M2220 1189c6 0 11-2 23-4l32-13 65-12 20 10c-55 12-110 24-163 33 8-7 16-10 24-14" fill="#2C140B" opacity="1"/><path d="M2364 1170c-9-3-13-6-20-10l98-35c10 3 15 8 19 13l-1 38a820 820 0 01-96-7" fill="#211815" opacity="1"/><path d="M2219 1186c-6 6-14 10-25 14-3 0-6-2-8-3-5-20-8-38-11-61 14 13 28 30 44 50" fill="#C98C32" opacity="1"/><path d="M2066 870c8 10 13 19 20 30 3 0 3 0 3 3l2 16-3 3a682 682 0 01-37-60c5 0 9 3 15 8" fill="#2C140B" opacity="1"/><path d="M2467 1453c4 12 6 27 6 45-5-13-7-28-6-45" fill="#12171C" opacity="1"/><path d="M2110 960c-8-10-14-20-22-35 0-3 2-5 5-6h7v4l14 34-4 3" fill="#2C140B" opacity="1"/><path d="M2225 1635" fill="#040608" opacity="1"/><path d="M1453 1303a3534 3534 0 01-160 166c-10-7-17-13-20-20 9-2 14-3 17-7 42-45 84-92 127-136 6-7 21-5 33-6l3 3" fill="#AC705B" opacity="1"/><path d="m1270 1450 20 20c3 2 1 7 0 9a550 550 0 01-77-66c14 1 25 5 37 8v3c3 7 6 12 11 18 3 5 6 7 10 8" fill="#7B4433" opacity="1"/><path d="M1462 1292c0 4-2 7-7 10-2 1-4 0-3-4 2-5 4-7 7-9l3 3" fill="#AC705B" opacity="1"/><path d="m1460 1286-10 11c-12 4-27 2-33 9-43 44-85 90-127 136-3 4-8 5-16 8-7-1-10-3-13-10l-12-20v-3l-82-58-58-55c0-3 2-5 10-6 23 0 43 5 56-2 33-20 63-44 98-67 30-28 60-54 85-84 10-14 9-37 12-55l-10-46c28 12 56 29 87 45 4 0 4 0 4 3l10 7 10 16c4 17 3 36 12 45 37 40 26 68-16 95-6 3-5 18-7 30" fill="#BC6747" opacity="1"/><path d="M1460 1097c-2 0-5-1-9-5 3-2 6 0 9 5" fill="#AC705B" opacity="1"/><path d="M580 2759v-345c58 0 115 3 176 6 5 0 8 2 8 8l-1 320c-60 4-120 10-183 10" fill="#3C2822" opacity="1"/><path d="M768 2748c-5-105-4-209-4-318 58 5 91 40 90 97-3 70-13 140-22 212-21 4-40 7-64 9" fill="#886555" opacity="1"/><path d="m1092 2616 18-45a190 190 0 01 26-40 350 350 0 01 58 23c0 34-2 65-4 96h-10c-7 4-8 6-10 10h-10a180 180 0 01-50-14c-7-8-12-12-17-16l-1-14" fill="#392329" opacity="1"/><path d="m1110 2650 46 10c4 2 4 4 5 8 0 3 0 3-4 3l-16 14c0 2-2 4-8 7-7 4-10 8-12 11-5 5-10 10-20 17-7 5-9 8-11 10 0 0-2 2-7 3-7 4-10 8-12 12-25 25-50 50-78 75 8-18 20-35 30-53 23-39 43-78 71-118h16" fill="#2F1613" opacity="1"/><path d="M1110 2646c-3 3-6 2-14 0-5-5-5-8-4-14 6 2 11 6 17 14" fill="#361A19" opacity="1"/><path d="M560 2395c-8 4-15 4-27 3 0-7 2-14 4-21 7 5 15 10 23 18" fill="#2F1919" opacity="1"/><path d="M1144 2684a40 40 0 01 13-13c0 4-5 8-13 13zm-52 46c0-2 2-5 7-9 0 2-2 5-7 9zm32-28c0-2 2-6 7-10 0 2-2 5-7 10zm-50 41c0-2 2-6 8-10 0 2-2 5-8 10" fill="#361A19" opacity="1"/><path d="M3130 2340h46c0 131-4 262-6 394 0 46-30 69-60 97-55 53-106 112-160 168-26 27-57 50-79 80-33 48-60 99-90 151l38 48c-26 28-52 57-79 89a795 795 0 01-136 29c5-67 6-132 54-184 21-23 35-54 56-82 46-16 76-42 86-89 10-40 27-47 62-24l20 10 9-6-29-55 13-12c87-27 124-86 116-177-5-50-8-103 32-147 43-25 21-42-5-63a720 720 0 00-71-13l2-11 72-20-4-13c-60-6-60-6-63-29 16 0 33 2 49-1 4-2 5-20 5-33-10-1-20 0-32 2-15 0-25 0-36-2 0-3 0-7 2-8 5-3 7-6 10-10 0-4 0-6-5-10-10-10-15-18-20-28 15-5 31-14 47-13 31 0 66 13 66-38 24 0 47 0 76 2 9 0 11 0 14-2" fill="#16222A" opacity="1"/><path d="M2705 4061c-5 1-12 6-15 4a222 222 0 00-227-19c-7-14-10-25-13-36 6-126 14-253 19-380 0-37 20-55 56-70 43 19 75 18 102-15 48 47 52 107 53 168 2 87 7 175 10 262 1 64 45 17 70 30a901 901 0 00-55 56" fill="#2E1E1E" opacity="1"/><path d="m3138 3796-218-280 50-6c100 0 189-2 282-1 41 46 80 91 117 137 2 3-3 12-8 20l-223 130" fill="#FAF8F2" opacity="1"/><path d="M1770 3650c35-47 70-94 109-142l162 1h174a9022 9022 0 01-213 281c-82-46-157-94-232-140" fill="#FBF8F0" opacity="1"/><path d="M3132 3140v-24c20-2 45-6 64 2 53 21 105 48 161 75 41 44 77 86 110 128l-210 168c-2 0-6-2-7-5l-28-27v-1c-4-5-8-7-10-9-25-25-50-50-72-76a140 140 0 01-25-58c33-19 40 0 50 21 9 22 15 60 59 35 30-20 55-39 84-60-50-40-90-70-128-104a916 916 0 00-48-65" fill="#F7F6F1" opacity="1"/><path d="M3140 3800c71-47 144-90 224-133a1710 1710 0 01 126 147c0 10 2 17 3 23-52 30-104 62-157 90-25 15-53 23-84 34-40-53-76-106-113-162" fill="#B35143" opacity="1"/><path d="M1767 3651c78 45 153 93 232 142-18 34-40 68-64 103a8330 8330 0 01-252-102 1770 1770 0 01 84-143" fill="#EDA84A" opacity="1"/><path d="M2710 3130c-17 28-30 59-52 82-48 52-49 117-58 184-48-2-95-7-146-15a1750 1750 0 01 72-162c18-35 40-68 65-107a60 60 0 01 22-12c15 0 26 0 36 3l60 27h1" fill="#1C242C" opacity="1"/><path d="M3130 3142a270 270 0 01 47 64c0 20 2 37 1 56-13 37-8 65 32 81l10 26c-40 25-46-13-56-35s-16-40-48-24c-25-42-47-84-72-128 2-24 6-47 10-69 25 10 50 21 76 30m34 102s1 0 0 0" fill="#F6F3E9" opacity="1"/><path d="M2628 3541c-28 37-60 38-99 18-21-30-21-58 4-77 15-12 50-20 60-12 18 15 24 44 35 71" fill="#ECE5DC" opacity="1"/><path d="m2760 4010 5-4 187-62 70 247c0 9-1 14-5 21-18-50-36-100-47-153-15-78-30-90-107-70-18 5-34 15-52 18-16 4-34 3-50 3" fill="#BC893C" opacity="1"/><path d="M3221 3461c10 4 19 12 28 26v20l-274 2c8-7 21-18 35-18 54-2 108 0 162-2 17-1 32-15 50-28" fill="#070D12" opacity="1"/><path d="M2180 3952c-20 78-41 157-66 237a1470 1470 0 01 28-138c8-33 22-66 37-99zm266 58c7 11 10 22 14 37a30 30 0 01-15 13c-18-15-31-35-50-43-35-16-74-26-114-40 20-2 46-5 68 0 32 8 62 22 97 33zm-338 180c-25 49-54 97-85 147 0-62 43-103 85-147zm83-243-6 4c20-32 38-30 75 14-18-3-36-8-59-17-6-4-8-4-10-1" fill="#2C1715" opacity="1"/><path d="M3212 3450c2 0 6 0 10 6-2 0-5-2-10-6" fill="#070D12" opacity="1"/><path d="M2360 4500c-6-19-10-40-13-65 40 9 22 37 13 64" fill="#2C1715" opacity="1"/><path d="M2757 4011c20-1 38 0 54-4 18-3 34-13 52-18 76-20 92-8 107 70 10 52 30 103 47 157-5 10-13 17-25 26-64-53-79-54-150-10-15 9-35 12-58 18-18-44-30-88-46-132-7-18-20-33-32-53 15-20 31-37 51-54" fill="#F69F1C" opacity="1"/><path d="M2412 4100c-41 9-52 36-52 73 0 76-2 76-71 42-22-10-46-22-70-25-12-1-26 14-40 25-15 6-30 9-51 13 22-80 42-154 64-227 3-9 22-20 30-18 52 15 105 29 154 50 17 7 24 35 36 57v10" fill="#F9A017" opacity="1"/><path d="M2193 3948c0-3 2-3 5-1l-5 1" fill="#071623" opacity="1"/><path d="M2330 4540c-22-3-55 0-60-10a207 207 0 01-13-86c0-4 26-15 37-12 14 4 30 17 34 30 5 21 2 45 2 73v5" fill="#F39D18" opacity="1"/><path d="M2465 1138c-8-5-13-10-20-16-65-52-78-124-85-203a376 376 0 00 426-10c4 0 5 4 4 9-24 75-30 153-94 204l-13 6c-43 8-84 14-132 20a855 855 0 01-86-10" fill="#F9F7EE" opacity="1"/><path d="m2985 914 20-25c22-22 44-41 65-60l14 6-25 70c0 3 0 3-3 5-10 12-17 22-25 30 0 0-3-1-2-5-13-7-26-11-40-17l-4-4" fill="#DA9C41" opacity="1"/><path d="M2700 1124c60-53 66-130 90-204 34 8 65 22 97 29 17 4 37-5 58-10l37-24c3 0 6 2 6 7-34 48-76 56-128 38-20-6-60-3-64 7-21 50-34 104-50 160l82 21c114 34 112 34 144-82 12-44 37-85 56-127 0 0 2 1 3 6l-68 245c-87-21-174-42-264-66" fill="#DA9C41" opacity="1"/><path d="M1367 1090c0 18 1 41-10 55-23 30-53 56-84 80-7-10-10-19-14-27 33-38 40-100 108-108" fill="#D48960" opacity="1"/><path d="M1255 1200c7 6 10 14 14 26-30 26-60 50-94 70-13 7-33 2-54 1 42-33 86-65 134-98" fill="#DC996D" opacity="1"/><path d="M1106 1305a723 723 0 01 96 95l-80-42a890 890 0 00-57-27c-2-5 0-8 0-15a130 130 0 01 40-10" fill="#7B4433" opacity="1"/><path d="M3783 4121a250 250 0 01-30 37 2650 2650 0 01-160-212c80-83 156-160 237-237 53 44 101 88 148 134-77 16-118 75-168 122-32 30-47 62-38 108 3 8 7 13 10 17l1 31" fill="#312B2C" opacity="1"/><path d="m3826 3709-233 234c-33-32-64-67-98-104-3-8-4-15-2-27 44-50 83-99 126-142 38-39 80-73 125-110 10-4 17-8 28-11 37 25 70 48 102 72l-7 27-40 60" fill="#F9F9F6" opacity="1"/><path d="M3785 4091c-6-5-10-10-10-18l130-143c27-29 47-66 92-70 1 0 2-6 7-10l71-4-5 14c-7 10-13 16-20 20-16 4-38 3-49 13-58 54-114 112-171 168-12 12-27 20-45 30" fill="#74503C" opacity="1"/><path d="m4050 3884 20-21a310 310 0 01 50 24c-16 20-30 36-47 52a210 210 0 01-22-55" fill="#F8D1A0" opacity="1"/><path d="M4078 3845c-25 2-47 4-76 3l-22-8a5400 5400 0 00-150-130 340 340 0 01 37-59c60 46 119 93 177 140l50 39c-3 6-8 10-16 15" fill="#161619" opacity="1"/><path d="M4335 2833c-6-2-7-4-8-10-4-24-7-45-6-70 25-3 46-4 72-4 30 4 56 10 81 10 32 0 64-5 97-6a560 560 0 00 49 26l20 37c-100 8-200 12-305 17" fill="#211815" opacity="1"/><path d="M4570 2750c-32 4-64 10-96 10-25 0-50-7-80-15-8-38-10-72-14-110l-2-204 130-10c24-2 45-1 42 40-3 55-11 103-9 150 3 40 17 80 28 122v17" fill="#3A2C2A" opacity="1"/><path d="M4376 2428c3 70 4 136 0 207-76 5-85-5-75-77 4-34 10-67 15-101h4c5-5 8-10 10-16l10-18c11 0 23 0 36 5" fill="#8F6D5F" opacity="1"/><path d="M4596 2398c-3 71-10 142-16 212-3 28-4 56-10 83-5-78-6-155-7-232 10-21 20-42 33-63" fill="#D9BF9C" opacity="1"/><path d="M4560 2460c4 78 5 155 8 237a88 88 0 01 0 33c-10-40-24-79-27-119-2-47 6-95 9-147 2-4 4-4 10-4" fill="#442E1E" opacity="1"/><path d="M4569 2733v-10c17 14 33 32 50 53a230 230 0 01-48-23l-2-20" fill="#D9BF9C" opacity="1"/><path d="M1291 3688a10150 10150 0 01 245 257c-8 24-16 43-25 62l-14 12c-8 10-10 15-14 21-27 32-54 64-86 99a220 220 0 00-27 30l-1 1h-36c6-25 17-50 30-80 15-50 3-87-32-113-60-44-120-86-180-131a70 70 0 01 17-20l123-138" fill="#C36E53" opacity="1"/><path d="M1150 3849c60 42 122 84 181 128 35 26 47 63 34 110a270 270 0 01-70-32c-13-22-18-43-31-55-47-44-96-85-143-130 10-10 20-16 29-21" fill="#D9885C" opacity="1"/><path d="M1120 3872c48 43 97 84 144 128 13 12 18 33 27 53-27-6-54-15-81-25-12-4-22-12-36-18a930 930 0 01-92-125c14-8 26-10 37-13" fill="#F9C990" opacity="1"/><path d="M1120 3870c-12 5-24 7-38 12-6 0-10-1-17-4l-14-16-8-13a6310 6310 0 01 223-191c10 7 17 16 25 27a4180 4180 0 01-123 140l-18 20c-10 10-19 15-30 24" fill="#9D553A" opacity="1"/><path d="M1257 4302a90 90 0 01-24 27 90 90 0 01 24-27" fill="#70A6B7" opacity="1"/><path d="M3769 3548c-8 4-15 8-26 10L3470 3320l-109-127c10-26 17-50 29-70 27-52 57-64 110-41 142 60 284 120 425 182 12 5 22 15 34 30-63 88-127 171-190 254" fill="#1C3D54" opacity="1"/><path d="M4236 2064c0 102-4 203-8 309-4 4-8 5-16 4-6 0-10 1-12 3-12 1-24 3-40 8-8 5-10 8-10 12 0 2-2 4-10 7-7 6-8 10-10 14l-3-2c-71 64-143 122-248 115-3-2-5-3-7-8l-2-40v-40l-2-158c1-6 1-10 5-16 4-20 8-37 5-53-8-52 11-72 66-82 97-17 190-48 286-74h6" fill="#F39D41" opacity="1"/><path d="M3870 2275c0 4 0 7-4 15-10 33-11 64-24 90-18 36 0 53 27 70 0 10 1 21-3 37l-18 50c-6 9-10 16-17 23l-36 6v10c13 2 26 3 40 8 10 34-17 75 32 90 0 65 0 130-3 200-80 6-156 6-232 6l-4-41-1-10c-2-3-1-4-1-4 0-2 2-4 3-14-2-66-6-124-9-187l7-55c3-98 4-193 4-288a19660 19660 0 01 239-6m-181 169c-41 25-35 37 45 86l43-137h-80c-1 17-2 31-8 50m-28-90c43 30 24-15 35-23l-10-12a120 120 0 00-25 34m54 228 20-7-2-12-37 6c4 4 8 8 20 13" fill="#FAF6E9" opacity="1"/><path d="M3772 3549c60-84 124-167 188-252 36 13 72 30 109 50a8378 8378 0 01-192 272c-36-22-68-45-105-70" fill="#80CDE2" opacity="1"/><path d="M3626 2573c-2 16-4 32-10 51-13 7-23 8-30 13-60 33-82 30-124-21V2590c28-64 64-72 115-36 14 10 32 13 49 20" fill="#E9DCCB" opacity="1"/><path d="M3627 2570c-18-3-36-6-50-16-51-36-87-28-116 33-16-47 10-82 60-78 25 3 50 8 84 14l5-64c5-60 10-119 18-178 3 95 2 190 0 288" fill="#1F2326" opacity="1"/><path d="M3873 2272c-5 3-7 3-11 2a780 780 0 01 0-101c1-30 15-43 49-50 87-13 172-36 259-56 19-4 38-7 58-7-93 29-187 60-284 77-55 10-74 30-66 82 3 16-1 33-5 53" fill="#401D0A" opacity="1"/><path d="M3624 2840c5 12 7 25 8 40h231c46 41 19 94 27 142 3 18 11 35 18 55-32 18-47 10-43-30 4-36 3-72 5-109 3-35-16-49-48-47-54 2-109 8-163 9-38 0-53-20-35-60zM3460 2620c43 47 66 50 124 17 8-5 18-6 31-9 7 59 10 117 13 180-7-27-17-58-17-89-1-47-8-56-54-47-11 2-22 6-33 7-17 2-34 0-54 0l-10-60zm511 472c10-1 24 0 37 4-10 2-22 0-37-4zm80 10a60 60 0 01 28 4c-8 2-17 0-28-4zm-428-278c2 1 0 2 1 2l-6-1h5" fill="#1F2326" opacity="1"/><path d="M4313 2458c-2 33-8 66-12 100-10 72-1 82 75 82 7 33 10 67 13 105-22 4-43 5-69 5a315 315 0 01-7-292" fill="#786054" opacity="1"/><path d="M3882 2535c102 6 174-52 245-116a969 969 0 01-60 100c-42 12-80 21-124 29-22 6-38 14-56 20-3-13-4-23-5-33" fill="#422414" opacity="1"/><path d="M4327 2442c0 4-2 10-8 15 0-5 3-10 8-15" fill="#786054" opacity="1"/><path d="M4153 2399c-3-3-1-6 4-9 2 3 0 6-4 9" fill="#FBD7A2" opacity="1"/><path d="M4133 2420c-1-3 0-7 5-12 2 3 0 7-5 12" fill="#422414" opacity="1"/><path d="M4203 2380c0-2 3-3 6-3 0 2-2 3-6 3" fill="#FBD7A2" opacity="1"/><path d="M4100 2736c-3 1-7 0-10-4 4-2 7 0 10 4" fill="#342C2C" opacity="1"/><path d="m3880 2534 7 38c2 34 2 60 2 88l-20 10c-50-10-24-52-32-89l-2-21a60 60 0 01 17-23l20-7 7 4" fill="#543F3A" opacity="1"/><path d="M3892 2661c-3-28-3-55-3-86a150 150 0 01 50-27c0 36-3 70-7 108-13 5-25 6-40 5" fill="#201313" opacity="1"/><path d="M2312 665c-5-8-10-20-14-33 7 9 10 20 14 33" fill="#D49142" opacity="1"/><path d="M2173 1108c-10-19-16-40-22-65a410 410 0 01 22 65zm-57-150a230 230 0 01-15-35c10 12 19 26 28 45-4 0-8-4-13-10zm155 213a70 70 0 01-26 12 80 80 0 01 26-12zM2150 1028c-4-5-8-13-12-25 4 5 8 13 12 25zm-12-37c-4-2-7-7-10-17 4 3 7 8 10 17zm-38-75c0 3-4 3-6 2a30 30 0 01-5-14c4 0 7 5 11 12" fill="#C98C32" opacity="1"/><path d="m2090 880-7-10 3-2c2 2 3 5 4 10v2" fill="#F29F20" opacity="1"/><path d="m3236 1670 20-12a2250 2250 0 01 124 113c26 26 52 54 76 86l-8 22a1120 1120 0 00-51 70c-20 4-40 3-60 5-50 26-95 51-142 72-20 9-46 20-53-24 17-10 32-13 47-17l-19-17c20-10 41-16 58-28 10-9 15-26 25-41l36-30c-17-17-30-34-47-45-6-4-20 3-34 7-16 20-53 26-28 62-3 8-7 12-14 17-32 11-51-44-83-12 13-24 25-49 45-75 54-8 44-36 31-65a32334 32334 0 00 76-87" fill="#F9F8F3" opacity="1"/><path d="M3250 1900c-7 14-11 31-22 40-17 12-38 19-58 28l20 17c-16 4-31 7-48 13-36 17-58 61-108 42-13-54 18-95 47-140 34-34 53 21 85 13a90 90 0 01-7 37h5l86-50" fill="#F7F3E9" opacity="1"/><path d="M2966 1190c20-80 42-160 65-245a280 280 0 01 25-35c-7 34-18 70-27 105l-43 157c-2 7-10 11-20 17" fill="#372108" opacity="1"/><path d="M3156 1760c16 27 26 55-25 60 5-20 14-39 25-60" fill="#F7F3E9" opacity="1"/><path d="M3232 1670c0 5-1 8-5 12-5-5-7-10-10-15 4 0 8 0 15 2" fill="#040608" opacity="1"/><path d="M1514 4006c6-18 14-37 24-58 3-2 5-2 9 0-8 20-20 38-33 58zm-140 162c4-9 10-18 20-27-3 10-10 18-20 27zm112-128c0-6 3-12 9-18 0 5-3 11-10 18" fill="#6F6563" opacity="1"/><path d="M4483 1610c3-10 6-24 14-30 31-21 62-42 53-86-7-33-18-65-27-98-3-10-8-21-11-36 14 16 28 36 43 58l14 56c10 67-22 110-86 136zm-5 6-103 47c13-50 64-35 101-53 4 0 3 4 2 6zm4-293c-53-5-72-52-100-90a1560 1560 0 01 100 90zm-123-116c-17 2-36 2-60 0 5-10 15-20 27-30 13 8 23 17 33 30zm21 20c-6-2-12-7-20-14 7 1 13 6 20 13zm128 120c-4 0-10-2-15-7 4 0 10 2 15 8zm-16-12c-3 0-6 0-9-5 2 0 5 0 9 5" fill="#BC564C" opacity="1"/><path d="m2610 3100-17 9c-28-9-57-13-77-30-77-63-152-130-223-193 10-32 20-56 32-83 178 14 350 6 528 6-6-15-7-22-10-24l-26-10c-17 0-32 2-50 4-16 0-26 0-40-3-124-4-244-5-364-5-10 0-22 5-36 8l-16 2c0-11 0-22 3-36 61 0 118 2 180 4 90-1 173-3 262-6 34-4 64-9 94-16 0-8 0-12 3-16 2 0 7 0 7 2l10 20c-3 40-16 82-10 108 8 48-7 48-39 46l14-23H2310l35 40 170 146c57 46 57 45 113 0a100 100 0 01 38-20c2 9 3 14 0 20l-56 50" fill="#4A2427" opacity="1"/><path d="M2290 2680a330 330 0 01-40-37c0-3 0-3 4-3l49-6c-10-19-17-31-21-45 7-5 12-7 21-6 26 0 46-1 70-3 15 4 26 8 38 15 30 14 62 21 90 35 32 15 52 4 69-21 15-22 27-46 43-68 6 4 10 6 16 13l2 38c8 8 16 18 23 17 44-4 90-5 126-40 37 25 71 37 109 10 28 15 55 28 79 44-44 12-84 22-82 78 0 2-10 5-17 5-7-10-14-17-22-25-3 0-7 0-9-4a520 520 0 00-84-7l-464 10" fill="#24262E" opacity="1"/><path d="M3035 2340c5 50-30 39-60 38-17 0-33 8-49 13l20 31c4 3 4 8 4 8-1 3-3 6-10 6-45-7-87-9-126-20-34-10-54 3-75 29-2 8-3 11-6 13-2 0-3-5-3-10a860 860 0 00-100-8l-1-2c-3-5-6-7-12-10-26-38-45 5-71 2-15 0-25 0-40-2-33-7-65-12-96-22l10-46c53-4 105-8 159-16 88-4 175-4 266-4h190" fill="#1D252D" opacity="1"/><path d="m2730 2778 40 2 50-2 23 7c3 2 4 9 10 24-178 0-350 8-527-10-8-5-10-9-14-15 3-3 8-4 20-4l398-2" fill="#BC5F56" opacity="1"/><path d="m2299 2580-20 9c-13 8-21 14-32 19l-15-3c-5-6-9-12-14-16-59-41-56-92 15-140 36 10 66 22 98 34 8-2 13-5 18-7 0 0-3 4-7-2-10 2-23 10-25 20-8 28-13 58-18 86m-60-17c30 5 49-8 50-37 0-15-12-35-24-42-9-5-33 3-41 13-20 20-19 44 14 66" fill="#E5E8EA" opacity="1"/><path d="M2328 2482c-30-10-59-22-92-34 0-43 17-68 66-70 37 0 73-11 114-18a110 110 0 01-10 47c-10 16-18 29-28 42h-10c-27-2-50-2-40 33" fill="#24262E" opacity="1"/><path d="M2289 2683c156-6 310-10 465-13 27 0 55 3 80 8-163 6-323 8-482 11-15 0-47-14-39 27l-3 4c-8-11-15-23-21-37" fill="#4A2427" opacity="1"/><path d="M2490 2748c-58-1-115-3-176-7-3-2-3-6 1-8 41-3 78-3 120-3h414c-30 4-60 9-98 12l-261 6" fill="#B96B5A" opacity="1"/><path d="m2430 2730-115 1c-4-2-5-3-5-8 0-3 2-6 6-8 40-2 77-3 114 0v14" fill="#4A2427" opacity="1"/><path d="M2231 2608c5-3 9-2 16 4 3 13 3 20 3 28-6-10-13-19-19-32" fill="#24262E" opacity="1"/><path d="M3201 2342c2 0 5 1 8 6-2 0-5-1-8-6" fill="#16222A" opacity="1"/><path d="M2538 1614c13-6 24-8 38-12 21 17 50 33 53 52 2 20-16 52-34 63-14 7-48-6-62-20-24-24-23-55 5-83" fill="#EDE5D4" opacity="1"/><path d="M3127 2340c0 1-2 2-6 2-1-2 4-2 6-2" fill="#1D252D" opacity="1"/><path d="M1204 1401a610 610 0 01-33-38 920 920 0 01 77 55c-10 0-20-4-35-8l-10-9" fill="#AC705B" opacity="1"/><path d="M1194 2650c-2-30 0-62 4-96 30 0 68-10 72 38 4 56 2 58-76 58" fill="#251214" opacity="1"/><path d="M1173 2658c-1-2 0-4 5-7 1 2 0 4-5 7" fill="#2F1613" opacity="1"/><path d="M1906 1830c27 37 50 75 70 115-40-17-77-37-115-57v-10c3-16 7-26 10-37l35-11" fill="#F2D8AD" opacity="1"/><path d="M1861 1892c38 16 75 36 116 57 3 1 3 0 3 3v8c-55 8-87-30-119-68zm7-51c0 10-4 21-8 36-33-14-20-26 8-36" fill="#F5F2E6" opacity="1"/><path d="M1983 1960c-3-2-3-3-3-8 3 0 5 2 9 6 1 2-4 2-6 2" fill="#F2D8AD" opacity="1"/><path d="m3854 1190-50-50c-4-14-4-28-4-46 30 30 62 63 92 100-12 2-23 0-38-4" fill="#80512E" opacity="1"/><path d="M4038 1192c10 0 18 4 28 8l7 10c-17 8-40 25-35-18" fill="#F9C98B" opacity="1"/><path d="M3901 1206c-3 2-6 0-10-4 3-2 7 0 10 4" fill="#80512E" opacity="1"/><path d="M4216 1270c-7 9-17 19-30 29-3-4-4-9-3-17 10-6 20-10 33-13zm40-30c-4 6-11 13-22 20 4-7 12-13 22-20zm31-30c0 5-2 10-8 16 0-5 3-10 8-15zm-14 16c0 4-4 9-10 13 0-4 3-8 10-13" fill="#BC564C" opacity="1"/><path d="M3533 1800c24-30 50-60 84-90l14 1c-31 30-63 59-98 89zm-81 80c-2-7 0-12 4-20l21-19a160 160 0 01-25 38zm50-50c2-7 7-13 15-20-2 6-6 13-14 20" fill="#BD5940" opacity="1"/><path d="M3633 1710H3620c2-7 8-13 17-20 2 6 0 11-4 20" fill="#A14D33" opacity="1"/><path d="M3483 1840c2-4 6-7 14-10-2 3-6 6-14 10" fill="#BD5940" opacity="1"/><path d="M3642 1690c0-3 1-6 6-10 0 3-1 6-6 10" fill="#A14D33" opacity="1"/><path d="M3522 1809c0-2 1-5 6-8 1 2 0 5-6 8" fill="#BD5940" opacity="1"/><path d="M2501 1146c13 0 28 0 45 4-13 33-29 22-45-4" fill="#211815" opacity="1"/><path d="M1250 1424c3 1 6 6 10 13-4-1-7-6-10-13" fill="#AC705B" opacity="1"/><path d="M2870 2710c5-4 16-7 16-10-2-55 38-65 84-80 20 0 35 5 50 10-37 44-34 97-30 147 9 91-28 150-115 177-4 1-7 6-13 12l29 55-9 6-20-10c-35-23-53-17-62 24-10 47-40 73-86 89-4 0-4 0-4-4 5-38-12-60-40-76l-3-20c-1-4 0-4 4-3 49-41 94-84 139-127h2c6-4 7-6 8-10 33 0 48-1 40-49-6-26 7-68 10-110V2710" fill="#1C242C" opacity="1"/><path d="M3023 2630c-18-5-33-10-50-13-30-10-56-23-85-42-18-10-37-7-48-15-17-10-28-30-41-45 17-10 32-24 50-32 9-3 21 3 32 5 0-19-8-36-16-36-32 0-68-15-92 15l-4-20c-3-4-6-6-12-7H2740c20-21 40-35 74-24 40 11 81 13 124 21 2 3 2 7-2 10-11 8-25 13-25 16l15 127c20 0 41 3 60 0 12-3 23-13 35-20 23 18 45 35 2 60" fill="#1A1D23" opacity="1"/><path d="M3018 2567c-9 10-20 20-32 22-19 4-40 1-60 1l-15-127c0-3 14-8 25-13h44l30-1c-2 10-3 30-7 30-16 4-33 2-50 2 4 23 4 23 64 29l4 14-72 19-2 11c23 4 45 7 70 13" fill="#E2E6E7" opacity="1"/><path d="M3008 2447c-6 2-13 3-24 3 5-3 14-4 24-3zm-56-18c-2 0-2-4-2-6 1 0 2 2 2 6" fill="#1A1D23" opacity="1"/><path d="M3467 3320a9800 9800 0 01 272 238c-40 40-82 73-120 112-43 43-82 91-126 139-42-46-82-94-126-143-1-8 4-17 2-20-37-46-76-90-117-137a5 5 0 01 0-8l8-10c68-57 136-113 207-170" fill="#B28571" opacity="1"/><path d="M3224 3369a60 60 0 01-14-30c-10-31-20-55-29-80a280 280 0 01-4-50c42 30 80 60 131 100l-84 60" fill="#F1D6B3" opacity="1"/><path d="M3257 3490c0 3 0 6-5 9-2-2-2-4-2-9 0-3 5-1 7 0" fill="#071623" opacity="1"/><path d="M2666 3050c32 16 49 38 44 76-20-5-40-15-61-23-10-3-21-2-36-3a430 430 0 01 53-50" fill="#24262E" opacity="1"/><path d="M3178 3262c13 22 22 46 31 74-39-9-44-37-30-74zm-13-17" fill="#FBEFD6" opacity="1"/><path d="M3029 935c-20 46-45 87-57 131-32 116-30 116-144 82-28-8-57-14-83-20 17-57 30-110 51-160 5-10 45-14 64-8 52 18 94 10 130-37 13 0 26 5 39 12" fill="#F8A017" opacity="1"/><path d="M3978 3843c8 0 13 0 20 5 1 6 0 12-1 12-45 4-65 41-91 70l-130 140c-13-43 2-76 34-105 50-47 91-106 168-122" fill="#5D4947" opacity="1"/><path d="M3870 2445c-27-12-46-30-28-66 13-25 14-56 23-87 4 49 5 99 4 153zm2 81c-4 6-10 7-18 8 0-14 4-28 11-43 5 10 6 20 7 35zm-180-85c3-17 4-31 5-48h80l-43 137c-80-50-86-60-43-89zm-31-93a190 190 0 01 25-30l10 12c-11 8 8 54-35 18zm50 232-15-13 37-6 2 12-23 7zm120-20c4 4 5 9 4 17-14 2-27 0-40 0v-11l36-6" fill="#FBF5E7" opacity="1"/><path d="M3253 1899a1300 1300 0 01-90 50h-3l10-36c3-8 7-12 13-21 12-24 20-43 28-62 10-3 25-10 30-6 17 11 30 28 48 45l-36 30" fill="#EFD7B5" opacity="1"/><path d="M3208 1831a300 300 0 01-24 58c-29-32 8-39 24-58" fill="#F7F3E9" opacity="1"/><path d="M3160 1950h-1 1" fill="#EFD7B5" opacity="1"/><path d="M2665 3026c-12 8-26 15-37 24-56 45-56 46-112 0a8120 8120 0 01-170-146c-11-10-20-21-36-40h525l-14 23c0 3-1 3-4 4-4 3-5 6-7 9h-3c-50 43-95 85-140 126h-2" fill="#E75642" opacity="1"/><path d="M2434 2730c-4-4-4-8 0-16a13092 13092 0 01 417-3l-1 16c-137 3-274 3-416 3zm293 46c-127 3-257 4-392 4 6-4 17-10 28-10 120 1 240 2 364 6" fill="#6D2426" opacity="1"/><path d="M2494 2749" fill="#914636" opacity="1"/><path d="M2817 2776c-10 3-25 4-43 4 11-3 26-4 43-4zm32-94c6 7 13 14 20 24 0 3 0 4-2 4h-14c-2 0-4 0-4-5v-23" fill="#6D2426" opacity="1"/><path d="M2860 2713c0-3 5-3 7-3 2 4 3 9 3 17-3-1-6-6-10-14" fill="#24262E" opacity="1"/><path d="M2847 2681c2 7 2 14 1 23-137 5-273 6-414 8-41 0-78 0-117 2-12-40 20-24 35-25l484-8h10" fill="#C96B5B" opacity="1"/><path d="M2371 2450h11c45-6 78 3 98 44a720 720 0 01-24 86l-46 12-38-15c-35-30-40-61-26-97l6-6 20-24m65 100c23-30 24-56-16-68-12-4-33 4-43 14-8 8-10 36-4 40 16 10 37 13 63 14" fill="#E6EAEC" opacity="1"/><path d="M2774 2472c23-35 60-20 90-20 9 0 16 17 17 36-10-2-23-8-32-5-18 8-33 21-50 32 13 16 24 34 40 45 12 8 30 6 47 11-35 35-70 23-108-5-6-34-5-64-4-94" fill="#DFE1E4" opacity="1"/><path d="m2773 2467 1 97c-30 40-76 40-120 45-7 0-15-9-20-17 50-7 20-42 30-63 36-20 37-20 54 62 32-47 18-90 17-131l4-15c5-5 10-5 19-3l12 8 3 17" fill="#151920" opacity="1"/><path d="M2410 2595a130 130 0 01 49-12l58 6c54 7 13-40 35-50 17-2 33-5 51-5l7 6c-13 23-25 47-40 69-17 25-37 36-69 20-28-13-60-20-90-34m153-30s1 0 0 0" fill="#1A1D23" opacity="1"/><path d="M2550 2430c22 3 41-40 69 0 5 7 8 9 11 10v54l1 40-3 16-15-9c-4-2-6-4-10-10a157 157 0 00-35-24L2540 2490l73-23-5-16c-20 0-39-2-58-6V2430m24 65s1 0 0 0zm-232-21c-10 42-5 73 26 102-19 6-40 8-65 7 1-31 6-60 14-89 2-10 14-18 25-20" fill="#1A1D23" opacity="1"/><path d="M2630 2554c0-9 0-13 5-20 11-4 19-4 26-4-7 20 24 55-27 59-4-11-4-21-5-35" fill="#E4E8EC" opacity="1"/><path d="M2254 2640c-4-8-4-15-4-27 8-10 16-16 27-22 10 12 16 24 26 43l-49 6" fill="#272B30" opacity="1"/><path d="M2664 2530h-29c-4-10-4-21 0-37 14-16 24-29 40-42 20 0 38 0 55 2 0 0 1 4 3 5 3 43 17 86-15 133-17-81-18-82-54-62" fill="#E2E6E7" opacity="1"/><path d="M2480 2490c-20-37-53-46-96-40 4-14 11-27 22-40a660 660 0 01 100 22c4 10 5 15 5 24 0 14 0 24-5 34H2480" fill="#1A1D23" opacity="1"/><path d="M2730 2449c-17 3-34 2-60 1l-40 2v-10a480 480 0 01 100 7" fill="#151920" opacity="1"/><path d="M2510 2452v-18c10-4 21-4 36-4 4 4 4 8 0 15a150 150 0 01-35 7" fill="#191C21" opacity="1"/><path d="M2629 2438c-2 0-5 0-8-6 2 0 5 1 8 6" fill="#151920" opacity="1"/><path d="M2234 2561c-29-20-30-43-10-64 8-10 32-18 40-13 13 7 24 27 24 42 0 29-20 42-54 35" fill="#272B30" opacity="1"/><path d="M2368 2450c-2 7-7 14-15 23-9 5-14 8-22 10-13-36 10-36 37-34" fill="#1A1D23" opacity="1"/><path d="M2670 3027c42-42 88-84 137-126-42 42-87 85-136 126zm142-128c0-2 1-5 5-8 2 3 0 5-5 8" fill="#4A2427" opacity="1"/><path d="M2769 2448c-2 0-5 0-8-6 2 0 5 1 8 6" fill="#1D252D" opacity="1"/><path d="M2434 2553c-23-4-44-7-60-17-6-4-4-32 4-40 10-10 31-18 43-14 40 12 40 39 13 70" fill="#272B30" opacity="1"/><path d="M2480 2494c7-4 15-4 27 0 5 35 6 65 6 94-16 0-32-2-51-7 4-30 10-56 18-87" fill="#191C21" opacity="1"/><path d="M2517 2590a950 950 0 01-6-96v-38c10-5 20-6 35-8l62 2 5 16-73 23 28 18c10 6 22 12 33 21-16 6-32 9-49 11-22 10 19 57-35 50" fill="#D3D6D9" opacity="1"/><path d="M2565 2565" fill="#24262E" opacity="1"/><path d="M2630 2454c11-3 22-3 36-3-7 13-17 26-31 39-4-10-4-22-4-36" fill="#E4E8EC" opacity="1"/><path d="M2575 2495" fill="#151920" opacity="1"/></svg>
